<svg width="949" height="812" viewBox="0 0 949 812" fill="none" xmlns="http://www.w3.org/2000/svg">
<g filter="url(#filter0_d_2_237)">
<path opacity="0.18" d="M926.429 540.685C919.59 567.638 907.73 594.538 897.338 618.526C857.857 709.109 791.235 771.056 686.922 758.394C636.649 752.276 587.444 735.394 536.824 737.024C488.394 738.519 442.287 756.764 396.288 771.964C310.808 800.253 216.164 818.364 131.619 787.217C47.0731 756.07 -18.6669 660.251 11.4116 575.305C34.8119 509.004 107.978 464.527 115.591 394.647C125.608 303.824 18.1165 225.475 40.7956 136.843C50.4389 99.5249 81.479 71.7437 114.362 51.7091C189.906 5.52286 282.786 -9.73009 369.576 5.97698C452.118 20.8025 520.796 90.309 603.979 93.5145C657.619 95.5447 709.228 65.0655 762.653 70.0875C828.74 76.4718 877.197 134.999 908.104 193.794C918.052 212.148 926.374 231.339 932.973 251.146C945.814 291.51 948.421 334.433 940.56 376.055C932.546 418.795 933.507 458.864 932.279 502.7C931.739 515.539 929.777 528.279 926.429 540.685Z" fill="#388CEF"/>
<path d="M353.949 713.757C350.69 714.772 347.03 716.428 346.202 719.66C356.46 726.178 369.148 727.674 381.276 727.354C393.403 727.033 405.504 724.896 417.658 724.816C433.686 724.816 451.744 727.674 464.619 717.951C458.901 714.33 452.335 712.267 445.573 711.967C447.951 697.008 363.458 710.792 353.949 713.757Z" fill="url(#paint0_linear_2_237)"/>
<path d="M148.02 535.556C143.693 535.556 137.709 537.747 138.778 541.941L336.265 557.968C359.505 559.865 382.772 561.735 406.118 561.735C441.379 561.735 476.48 557.407 511.66 555.377C544.784 553.481 577.961 553.614 611.112 553.774C641.805 553.935 679.55 559.464 709.361 551.424C713.849 550.222 718.363 546.615 718.069 541.994C717.936 539.857 716.814 537.64 717.642 535.663C718.123 534.693 718.886 533.892 719.832 533.366C725.95 529.599 733.75 532.538 740.802 534.087C752.026 536.527 763.749 535.037 774.006 529.867C775.928 529.067 777.566 527.708 778.707 525.966C779.251 525.087 779.448 524.036 779.261 523.019C779.073 522.002 778.514 521.091 777.692 520.464C776.862 520.053 775.947 519.843 775.021 519.849L714.57 515.148C712.338 514.802 710.055 515.004 707.919 515.735C705.541 516.777 705.675 519.555 703.751 520.704C700.626 522.547 693.52 521.559 689.941 521.773C680.778 522.28 671.616 522.788 662.427 523.242C644.138 524.114 625.813 524.853 607.452 525.459C570.054 526.714 532.47 527.462 494.992 528.13C420.864 529.332 346.709 529.973 272.608 532.832C231.07 534.381 189.559 534.648 148.02 535.556Z" fill="url(#paint1_linear_2_237)"/>
<path d="M299.882 123.994C296.406 122.786 292.609 122.881 289.197 124.261C286.996 125.046 284.984 126.284 283.291 127.894C281.598 129.504 280.261 131.452 279.367 133.61C279.349 133.891 279.272 134.165 279.14 134.413C279.008 134.661 278.825 134.879 278.603 135.051C278.38 135.223 278.124 135.345 277.85 135.41C277.576 135.475 277.292 135.48 277.016 135.427C273.129 135.418 269.377 136.856 266.491 139.46C263.125 142.532 263.125 146.299 262.671 150.706C262.12 150.429 261.512 150.285 260.895 150.285C260.278 150.285 259.67 150.429 259.119 150.706C258.018 151.249 257.016 151.971 256.153 152.843C254.68 154.027 253.5 155.535 252.708 157.251C251.639 160.163 252.841 163.368 252.894 166.467C252.913 166.606 252.901 166.747 252.86 166.881C252.818 167.015 252.748 167.138 252.654 167.242C252.544 167.289 252.426 167.313 252.307 167.313C252.187 167.313 252.069 167.289 251.96 167.242C251.131 167.081 250.383 166.654 249.555 166.574C248.587 166.583 247.651 166.929 246.91 167.553C246.169 168.177 245.669 169.04 245.495 169.993C245.18 171.906 245.28 173.865 245.789 175.736C246.285 177.609 246.23 179.585 245.629 181.426C244.988 182.636 244.149 183.728 243.144 184.658C240.247 187.358 238.362 190.969 237.802 194.889C237.645 196.784 238.155 198.674 239.244 200.232C239.804 201.001 240.553 201.612 241.419 202.005C242.285 202.399 243.239 202.561 244.186 202.476C248.62 201.888 250.17 195.664 254.39 194.195C258.611 192.725 263.339 187.757 266.064 183.83C268.254 180.678 270.391 177.018 274.078 175.816C275.291 175.558 276.461 175.127 277.55 174.534C278.275 173.968 278.875 173.259 279.313 172.451C280.84 170.2 282.02 167.733 282.813 165.131C284.148 160.002 282.813 154.232 285.297 149.504C286.006 148.148 286.994 146.957 288.195 146.008C289.397 145.06 290.785 144.376 292.269 144.002C293.525 143.681 294.94 143.601 296.089 143.254C297.542 142.834 298.914 142.175 300.149 141.304C301.774 140.369 303.172 139.087 304.243 137.549C305.315 136.012 306.033 134.256 306.347 132.408C306.587 128.642 303.194 125.276 299.882 123.994Z" fill="#FF681C"/>
<path d="M310.808 130.325C312.142 130.84 313.249 131.814 313.93 133.072C314.611 134.331 314.82 135.791 314.521 137.19C314.064 138.321 313.382 139.348 312.517 140.208L307.682 145.551L305.679 138.125C305.471 136.731 304.781 135.455 303.729 134.518C303.042 134.125 302.263 133.918 301.472 133.918C300.68 133.918 299.901 134.125 299.214 134.518C297.799 135.24 296.543 136.362 295.288 137.19C294.94 137.403 294.459 137.644 294.085 137.43C293.711 137.216 293.658 136.442 293.845 135.908C296.142 129.55 304.931 127.787 310.808 130.325Z" fill="#FF681C"/>
<path d="M314.093 331.284C314.24 333.785 315.072 336.197 316.497 338.256C318.661 340.928 322.267 342.263 325.259 344.213C325.567 344.37 325.837 344.592 326.049 344.864C326.262 345.137 326.412 345.452 326.488 345.789C326.47 346.115 326.357 346.428 326.162 346.689C325.967 346.95 325.7 347.149 325.393 347.258C324.759 347.438 324.095 347.483 323.443 347.392C320.391 346.913 317.314 346.619 314.227 346.511C312.678 346.511 310.888 346.671 309.899 345.469C309.263 344.45 309.043 343.226 309.285 342.049C309.558 337.631 309.199 333.197 308.217 328.88C307.889 327.827 307.771 326.72 307.869 325.621C307.969 325.113 308.2 324.64 308.54 324.249C308.879 323.858 309.315 323.563 309.804 323.393C310.293 323.223 310.818 323.183 311.327 323.279C311.836 323.375 312.311 323.602 312.704 323.938C314.467 325.461 313.88 329.227 314.093 331.284Z" fill="#FCBDBA"/>
<path d="M264.675 347.819C264.312 350.296 264.626 352.825 265.583 355.139C267.159 358.318 270.445 360.214 272.982 362.725C273.257 362.935 273.48 363.206 273.633 363.517C273.786 363.827 273.865 364.169 273.864 364.515C273.785 364.83 273.613 365.113 273.37 365.328C273.126 365.542 272.824 365.678 272.502 365.717C271.851 365.784 271.193 365.702 270.578 365.477C267.676 364.417 264.715 363.525 261.71 362.805C260.187 362.538 258.397 362.271 257.676 360.935C257.238 359.819 257.238 358.579 257.676 357.463C258.836 353.181 259.376 348.755 259.279 344.32C259.171 343.223 259.279 342.116 259.599 341.061C259.8 340.584 260.122 340.168 260.534 339.854C260.946 339.54 261.432 339.339 261.946 339.271C262.459 339.204 262.981 339.272 263.46 339.469C263.938 339.666 264.357 339.984 264.675 340.393C266.197 342.183 264.862 345.763 264.675 347.819Z" fill="#FCBDBA"/>
<path d="M254.951 227.612C254.951 227.612 280.435 265.437 297.131 276.737C296.81 280.519 296.891 284.325 297.371 288.09C298.226 294.207 301.191 299.576 302.153 305.587L305.358 325.808C305.492 326.716 305.759 327.812 306.64 328.132C307.17 328.302 307.74 328.302 308.27 328.132L315.322 326.209C314.899 314.059 315.158 301.894 316.097 289.773C316.675 284.871 316.8 279.926 316.471 275.001C315.295 264.316 306.534 254.779 300.443 246.204C296.783 241.022 292.857 233.275 287.728 229.349C283.454 226.09 277.417 227.639 272.047 228.173C268.021 228.558 263.958 228.269 260.027 227.318C259.223 226.942 258.338 226.772 257.452 226.823C256.566 226.874 255.706 227.146 254.951 227.612Z" fill="#473F47"/>
<path d="M245.255 227.372C245.255 227.372 255.165 271.902 266.625 288.517C264.959 291.938 263.644 295.517 262.698 299.202C262.065 302.219 261.699 305.284 261.603 308.365L259.305 345.549C262.857 345.735 266.412 345.283 269.804 344.213L282.839 311.437C285.329 306.216 286.797 300.567 287.167 294.795C287.167 283.629 276.482 242.865 275.226 240.808C272.421 236.187 266.251 235.466 261.068 233.97C257.177 232.87 253.501 231.118 250.196 228.788C248.567 227.773 247.098 226.784 245.255 227.372Z" fill="#473F47"/>
<path d="M336.746 192.699C342.176 195.205 348.203 196.131 354.136 195.37C355.875 194.891 357.699 194.799 359.478 195.103C358.703 196.198 357.955 197.774 359.051 198.709C359.386 198.928 359.773 199.057 360.173 199.083C361.613 199.269 363.077 199.113 364.447 198.629C365.093 198.308 365.809 198.152 366.53 198.175C367.167 198.333 367.715 198.736 368.055 199.297C368.395 199.857 368.5 200.529 368.347 201.167C367.968 202.438 367.131 203.524 365.996 204.212C364.161 205.427 362.036 206.132 359.839 206.254C357.642 206.376 355.452 205.911 353.494 204.906C352.373 204.292 351.331 203.517 350.182 202.903C347.972 201.896 345.636 201.195 343.237 200.819C336.214 199.366 329.312 197.383 322.588 194.889C321.569 194.647 320.611 194.2 319.77 193.575C318.93 192.951 318.225 192.162 317.699 191.256C316.337 187.89 318.848 182.254 322.855 184.445C327.503 187.143 331.697 190.615 336.746 192.699Z" fill="#FCBDBA"/>
<path d="M303.569 173.519C311.501 178.705 320.35 182.331 329.64 184.204C330.041 184.204 330.522 184.471 330.629 184.872C330.671 185.145 330.604 185.423 330.441 185.647C328.544 189.466 326.146 193.014 323.309 196.198C323.005 196.602 322.612 196.931 322.161 197.16C321.717 197.29 321.251 197.328 320.792 197.273C320.333 197.218 319.89 197.071 319.489 196.839C313.488 194.435 307.611 191.764 301.859 188.825C296.74 186.58 292.179 183.233 288.503 179.022C286.669 176.837 285.583 174.122 285.404 171.275C285.404 168.123 288.289 162.46 292.269 164.009C294.059 164.704 295.635 166.921 296.997 168.177C299.076 170.09 301.271 171.875 303.569 173.519V173.519Z" fill="#388CEF"/>
<path d="M303.569 173.519C311.501 178.705 320.35 182.331 329.64 184.204C330.041 184.204 330.522 184.471 330.629 184.872C330.671 185.145 330.604 185.423 330.441 185.647C328.544 189.466 326.146 193.014 323.309 196.198C323.005 196.602 322.612 196.931 322.161 197.16C321.717 197.29 321.251 197.328 320.792 197.273C320.333 197.218 319.89 197.071 319.489 196.839C313.488 194.435 307.611 191.764 301.859 188.825C296.74 186.58 292.179 183.233 288.503 179.022C286.669 176.837 285.583 174.122 285.404 171.275C285.404 168.123 288.289 162.46 292.269 164.009C294.059 164.704 295.635 166.921 296.997 168.177C299.076 170.09 301.271 171.875 303.569 173.519V173.519Z" fill="url(#paint2_linear_2_237)"/>
<path d="M415.388 157.598C416.815 159.398 417.667 161.586 417.832 163.877C417.998 166.168 417.47 168.455 416.317 170.442C415.163 172.428 413.439 174.021 411.367 175.013C409.296 176.005 406.973 176.35 404.703 176.003C404.703 176.003 392.068 176.297 394.926 188.211L418.967 218.824L388.355 242.865C376.441 245.723 376.147 233.088 376.147 233.088C376.474 230.82 376.113 228.506 375.112 226.445C374.11 224.384 372.514 222.671 370.528 221.526C368.543 220.382 366.261 219.858 363.975 220.024C361.69 220.19 359.506 221.037 357.707 222.456C355.908 223.876 354.576 225.801 353.882 227.986C353.188 230.17 353.166 232.511 353.816 234.708C354.467 236.906 355.762 238.857 357.533 240.311C359.304 241.765 361.47 242.655 363.752 242.865C374.624 246.445 370.404 257.023 370.404 257.023L339.791 281.064L277.577 202.075L307.896 178.034C319.81 175.175 320.104 187.81 320.104 187.81C319.82 189.684 320.006 191.598 320.646 193.381C321.285 195.165 322.358 196.761 323.768 198.027C325.177 199.293 326.879 200.189 328.72 200.635C330.562 201.08 332.485 201.061 334.317 200.579C336.15 200.096 337.833 199.166 339.217 197.872C340.601 196.578 341.641 194.961 342.245 193.165C342.849 191.369 342.997 189.451 342.675 187.584C342.354 185.717 341.574 183.959 340.405 182.468C339.431 181.243 338.218 180.228 336.841 179.484C335.464 178.74 333.95 178.283 332.391 178.14C321.626 174.588 325.847 163.902 325.847 163.902L356.753 139.514L380.795 170.153C380.795 170.153 391.48 174.374 394.953 163.502C395.182 161.225 396.087 159.069 397.553 157.312C399.018 155.554 400.976 154.276 403.174 153.641C405.372 153.005 407.711 153.043 409.887 153.748C412.064 154.454 413.98 155.795 415.388 157.598V157.598Z" fill="#388CEF"/>
<path d="M415.388 157.598C416.815 159.398 417.667 161.586 417.832 163.877C417.998 166.168 417.47 168.455 416.317 170.442C415.163 172.428 413.439 174.021 411.367 175.013C409.296 176.005 406.973 176.35 404.703 176.003C404.703 176.003 392.068 176.297 394.926 188.211L418.967 218.824L388.355 242.865C376.441 245.723 376.147 233.088 376.147 233.088C376.474 230.82 376.113 228.506 375.112 226.445C374.11 224.384 372.514 222.671 370.528 221.526C368.543 220.382 366.261 219.858 363.975 220.024C361.69 220.19 359.506 221.037 357.707 222.456C355.908 223.876 354.576 225.801 353.882 227.986C353.188 230.17 353.166 232.511 353.816 234.708C354.467 236.906 355.762 238.857 357.533 240.311C359.304 241.765 361.47 242.655 363.752 242.865C374.624 246.445 370.404 257.023 370.404 257.023L339.791 281.064L277.577 202.075L307.896 178.034C319.81 175.175 320.104 187.81 320.104 187.81C319.82 189.684 320.006 191.598 320.646 193.381C321.285 195.165 322.358 196.761 323.768 198.027C325.177 199.293 326.879 200.189 328.72 200.635C330.562 201.08 332.485 201.061 334.317 200.579C336.15 200.096 337.833 199.166 339.217 197.872C340.601 196.578 341.641 194.961 342.245 193.165C342.849 191.369 342.997 189.451 342.675 187.584C342.354 185.717 341.574 183.959 340.405 182.468C339.431 181.243 338.218 180.228 336.841 179.484C335.464 178.74 333.95 178.283 332.391 178.14C321.626 174.588 325.847 163.902 325.847 163.902L356.753 139.514L380.795 170.153C380.795 170.153 391.48 174.374 394.953 163.502C395.182 161.225 396.087 159.069 397.553 157.312C399.018 155.554 400.976 154.276 403.174 153.641C405.372 153.005 407.711 153.043 409.887 153.748C412.064 154.454 413.98 155.795 415.388 157.598V157.598Z" fill="url(#paint3_linear_2_237)"/>
<path d="M314.227 227.265C320.771 232.608 327.583 238.351 335.597 239.74C337.139 240.085 338.734 240.119 340.289 239.839C341.844 239.559 343.328 238.971 344.653 238.11C345.11 237.838 345.482 237.444 345.727 236.972C345.973 236.501 346.082 235.97 346.042 235.439C345.748 234.13 344.145 233.676 342.836 233.436C336.714 232.598 330.836 230.487 325.58 227.238C323.63 225.859 321.782 224.341 320.05 222.697L307.041 211.104C306.882 210.911 306.682 210.755 306.456 210.649C306.23 210.543 305.982 210.488 305.732 210.489C305.198 210.489 304.877 211.104 304.637 211.585C303.83 213.226 303.221 214.956 302.82 216.74C302.42 218.69 302.82 218.957 304.503 220.079C307.869 222.359 311.11 224.754 314.227 227.265Z" fill="url(#paint4_linear_2_237)"/>
<path d="M320.264 217.488C324.79 221.449 330.348 224.042 336.291 224.968C338.059 224.992 339.801 225.402 341.394 226.17C340.298 226.998 339.123 228.414 339.951 229.509C340.217 229.814 340.558 230.044 340.939 230.177C342.271 230.745 343.715 231.001 345.16 230.925C345.875 230.816 346.606 230.87 347.297 231.085C347.576 231.248 347.821 231.464 348.016 231.722C348.211 231.979 348.354 232.272 348.436 232.585C348.518 232.898 348.537 233.223 348.493 233.543C348.449 233.864 348.342 234.172 348.179 234.451C347.481 235.582 346.369 236.397 345.08 236.721C342.982 237.383 340.745 237.469 338.602 236.971C336.46 236.473 334.49 235.409 332.899 233.89C331.964 232.982 331.189 231.94 330.228 231.058C328.39 229.472 326.34 228.151 324.137 227.131C317.802 223.765 311.73 219.925 305.973 215.645C305.064 215.129 304.269 214.435 303.635 213.604C303.002 212.773 302.543 211.823 302.286 210.81C301.912 207.177 305.892 202.449 309.151 205.708C312.945 209.554 316.017 213.962 320.264 217.488Z" fill="#FCBDBA"/>
<path d="M245.255 233.088C245.733 233.662 246.336 234.119 247.018 234.424C249.706 235.957 252.5 237.296 255.379 238.431C262.86 241.109 271.049 241.043 278.485 238.244C281.461 237.173 284.254 235.65 286.766 233.73C287.719 233.08 288.521 232.233 289.117 231.245C289.826 229.635 290.049 227.852 289.758 226.116C289.09 217.114 288.102 207.818 289.758 199.083C290.29 196.082 291.187 193.158 292.429 190.375C294.592 186.577 296.382 182.578 297.772 178.434C298.248 175.888 298.163 173.268 297.521 170.758C296.88 168.248 295.698 165.908 294.059 163.903C290.586 159.468 284.228 155.541 278.619 157.545C272.139 159.987 266.519 164.278 262.458 169.886C258.029 176.167 254.521 183.048 252.04 190.321C250.971 193.18 249.929 196.038 249.101 198.976C247.333 206.084 246.189 213.333 245.682 220.64C245.388 223.686 245.121 226.731 244.801 229.776C244.548 230.899 244.71 232.075 245.255 233.088V233.088Z" fill="#388CEF"/>
<path d="M278.485 238.244C281.461 237.173 284.254 235.65 286.766 233.729C287.719 233.08 288.521 232.233 289.117 231.245C289.826 229.635 290.049 227.852 289.758 226.116C289.09 217.114 288.102 207.818 289.758 199.083C288.689 198.015 287.487 197.053 286.312 196.091C283.641 193.901 279.794 189.573 275.921 189.867C276.856 193.954 277.604 198.121 278.165 202.289C278.726 206.456 278.512 210.783 279.18 214.897C280.066 222.176 279.895 229.545 278.672 236.775C278.558 237.257 278.496 237.749 278.485 238.244V238.244Z" fill="url(#paint5_linear_2_237)"/>
<path d="M310.995 203.464C311.203 203.57 311.389 203.717 311.54 203.896C311.692 204.075 311.806 204.282 311.876 204.506C311.884 204.95 311.721 205.38 311.422 205.708C308.995 209.133 305.951 212.077 302.446 214.389C302.108 214.658 301.701 214.825 301.271 214.87C300.778 214.818 300.318 214.601 299.962 214.256C294.62 210.169 289.277 206.242 284.068 201.968C280.7 199.578 277.725 196.675 275.253 193.367C273.436 190.38 272.052 187.151 271.139 183.777C267.96 173.759 277.577 169.405 284.015 176.751C292.509 186.475 300.256 195.958 310.995 203.464Z" fill="#388CEF"/>
<path d="M309.686 345.843C309.546 345.511 309.498 345.148 309.544 344.792C309.591 344.435 309.732 344.097 309.953 343.813C310.54 343.252 311.502 343.519 312.25 343.813C313.902 344.614 315.629 345.249 317.406 345.709C319.195 346.18 321.095 345.981 322.748 345.148C323.656 344.614 324.538 343.813 325.58 343.893C326.104 343.971 326.606 344.162 327.049 344.454C328.653 345.285 330.373 345.871 332.151 346.19C332.899 346.254 333.622 346.491 334.261 346.885C334.455 347.021 334.596 347.218 334.662 347.446C334.662 347.98 334.154 348.38 333.647 348.567C328.091 350.731 321.867 349.93 315.936 349.289C315.272 349.195 314.597 349.195 313.933 349.289C312.945 349.476 311.742 349.983 310.914 349.289C310.205 348.27 309.781 347.08 309.686 345.843Z" fill="#473F47"/>
<path d="M256.928 361.069C256.841 360.723 256.842 360.361 256.931 360.016C257.019 359.671 257.193 359.353 257.436 359.092C258.103 358.611 259.012 359.092 259.733 359.386C261.285 360.373 262.921 361.223 264.621 361.924C266.345 362.564 268.241 362.564 269.964 361.924C270.926 361.523 271.887 360.829 272.929 361.042C273.434 361.19 273.906 361.435 274.318 361.764C275.789 362.841 277.421 363.679 279.153 364.248C279.897 364.402 280.593 364.731 281.183 365.209C281.27 365.282 281.34 365.372 281.391 365.473C281.441 365.574 281.471 365.684 281.477 365.797C281.477 366.331 280.889 366.652 280.355 366.786C274.559 368.255 268.495 366.785 262.698 365.316C262.047 365.127 261.373 365.028 260.695 365.022C259.706 365.022 258.451 365.45 257.703 364.542C257.162 363.466 256.896 362.273 256.928 361.069Z" fill="#473F47"/>
<path d="M306.4 148.65C305.946 150.119 305.492 151.588 305.118 153.084C304.694 155.315 304.104 157.511 303.355 159.655C302.974 160.724 302.366 161.698 301.573 162.51C300.78 163.321 299.82 163.951 298.76 164.357C297.679 164.702 296.506 164.617 295.486 164.12C294.466 163.622 293.677 162.75 293.284 161.685C292.002 161.979 291.548 163.555 291.574 164.891C291.789 166.198 291.544 167.538 290.88 168.684C289.678 170.1 287.327 169.512 285.751 168.497C283.365 166.889 281.51 164.609 280.421 161.946C279.332 159.283 279.058 156.357 279.634 153.538C280.943 147.581 280.889 140.449 284.282 135.293C285.501 133.553 287.054 132.073 288.85 130.939C290.424 129.787 292.26 129.043 294.192 128.775C295.545 128.696 296.903 128.804 298.226 129.096C303.889 130.058 308.697 130.886 308.724 137.377C308.55 141.234 307.766 145.038 306.4 148.65Z" fill="#FCBDBA"/>
<path d="M299.428 138.151C298.546 138.151 297.531 137.938 296.757 138.472C295.982 139.006 295.929 140.208 295.448 141.143C294.513 142.88 292.135 143.12 290.346 144.028C289.262 144.608 288.359 145.477 287.736 146.537C287.114 147.598 286.797 148.809 286.82 150.039C286.854 149.252 286.659 148.472 286.259 147.795C286.152 147.634 286.013 147.497 285.852 147.392C285.69 147.287 285.508 147.216 285.318 147.183C285.128 147.151 284.934 147.157 284.746 147.203C284.559 147.248 284.382 147.331 284.228 147.447C283.987 147.733 283.847 148.09 283.828 148.463C283.755 149.225 283.879 149.994 284.188 150.696C284.496 151.397 284.979 152.008 285.591 152.469C285.036 153.615 284.165 154.578 283.082 155.245C281.998 155.913 280.746 156.256 279.474 156.236C278.669 156.255 277.884 155.99 277.256 155.488C276.861 155.082 276.568 154.587 276.402 154.045C274.879 149.771 277.203 145.204 277.764 140.689C277.817 139.095 278.078 137.515 278.539 135.988C279.034 134.909 279.712 133.924 280.542 133.076C283.036 130.082 286.336 127.866 290.052 126.692C293.631 125.703 300.737 126.211 303.542 129.042C304.178 129.853 304.58 130.822 304.704 131.845C304.829 132.868 304.67 133.905 304.246 134.844C303.822 135.783 303.149 136.588 302.299 137.171C301.45 137.754 300.457 138.093 299.428 138.151V138.151Z" fill="#FF681C"/>
<path d="M297.852 543.677V493.698C304.423 479.433 317.379 489.156 317.379 489.156C319.402 491.276 322.013 492.741 324.876 493.363C327.739 493.985 330.722 493.735 333.442 492.646C336.162 491.557 338.493 489.678 340.135 487.251C341.777 484.825 342.654 481.962 342.654 479.032C342.654 476.102 341.777 473.24 340.135 470.813C338.493 468.387 336.162 466.508 333.442 465.418C330.722 464.329 327.739 464.079 324.876 464.701C322.013 465.323 319.402 466.788 317.379 468.908C305.145 476.922 297.852 464.367 297.852 464.367V414.361H347.831C347.831 414.361 360.493 407.068 352.373 394.834C350.253 392.811 348.788 390.2 348.166 387.337C347.544 384.474 347.794 381.49 348.883 378.771C349.972 376.051 351.851 373.72 354.278 372.078C356.704 370.436 359.567 369.559 362.497 369.559C365.426 369.559 368.289 370.436 370.716 372.078C373.142 373.72 375.021 376.051 376.11 378.771C377.2 381.49 377.45 384.474 376.828 387.337C376.206 390.2 374.74 392.811 372.621 394.834C372.621 394.834 362.897 407.789 377.162 414.361H427.141V543.677H297.852Z" fill="url(#paint6_linear_2_237)"/>
<path d="M202.087 541.006H193.058L285.484 296.958C285.795 296.171 286.336 295.494 287.036 295.018C287.736 294.542 288.564 294.287 289.411 294.287V294.287C290.095 294.286 290.768 294.451 291.374 294.768C291.98 295.085 292.5 295.545 292.889 296.107C293.278 296.669 293.524 297.318 293.607 297.997C293.69 298.676 293.607 299.364 293.364 300.004L202.087 541.006Z" fill="#388CEF"/>
<path d="M256.234 541.006H247.205L340.646 294.234H349.675L256.234 541.006Z" fill="#388CEF"/>
<path d="M326.061 332.78H278.298L280.702 326.423H328.465L326.061 332.78Z" fill="#388CEF"/>
<path d="M311.369 371.54H263.606L266.037 365.183H313.799L311.369 371.54Z" fill="#388CEF"/>
<path d="M296.703 410.3H248.941L251.345 403.916H299.107L296.703 410.3Z" fill="#388CEF"/>
<path d="M282.038 449.034H234.276L236.68 442.676H284.442L282.038 449.034Z" fill="#388CEF"/>
<path d="M267.346 487.794H219.584L222.014 481.436H269.75L267.346 487.794Z" fill="#388CEF"/>
<path d="M280.943 332.78L268.655 365.183H313.88L311.475 371.54H266.331L254.07 403.916H299.188L296.783 410.274H251.586L239.324 442.676H284.496L282.091 449.034H236.92L224.632 481.436H269.777L267.346 487.794H222.228L202.087 541.006H193.058L285.484 296.958C285.885 296.121 286.552 295.439 287.38 295.019C288.208 294.599 289.152 294.463 290.064 294.634C290.977 294.804 291.809 295.271 292.429 295.962C293.05 296.652 293.426 297.528 293.498 298.454C293.498 298.965 293.407 299.471 293.231 299.95L283.213 326.423H328.331L325.927 332.78H280.943Z" fill="url(#paint7_linear_2_237)"/>
<path d="M256.234 541.006H247.205L340.646 294.234H349.675L256.234 541.006Z" fill="url(#paint8_linear_2_237)"/>
<path d="M704.179 330.002C702.844 331.131 701.245 331.903 699.531 332.246C697.957 332.312 696.388 332.029 694.936 331.418L672.711 324.018C671.032 325.326 669.911 327.222 669.574 329.324C669.237 331.426 669.709 333.577 670.895 335.345C673.073 337.731 675.907 339.422 679.042 340.206L694.295 345.682C697.815 347.327 701.657 348.168 705.543 348.145C709.428 348.122 713.26 347.235 716.761 345.549C721.302 344.026 726.297 342.13 728.487 337.856C730.678 333.582 729.075 327.918 729.716 322.923C730.56 319.75 731.158 316.518 731.506 313.253C731.506 310.448 729.209 306.228 725.87 306.815C722.985 307.323 721.061 312.345 719.539 314.455C715.246 320.394 710.065 325.638 704.179 330.002V330.002Z" fill="white"/>
<path d="M669.933 322.763C669.701 322.162 669.347 321.616 668.891 321.16C668.667 320.931 668.38 320.774 668.066 320.707C667.753 320.641 667.426 320.668 667.128 320.786C666.837 320.966 666.602 321.224 666.45 321.531C666.299 321.838 666.238 322.182 666.274 322.523C666.295 322.643 666.292 322.767 666.264 322.886C666.237 323.006 666.185 323.118 666.113 323.217C665.953 323.377 665.659 323.217 665.419 323.217C662.908 322.736 660.343 322.362 657.779 322.095C657.504 322.04 657.219 322.061 656.955 322.155C656.69 322.249 656.457 322.413 656.278 322.63C656.1 322.847 655.984 323.108 655.942 323.385C655.901 323.663 655.936 323.946 656.043 324.205C656.321 325.056 656.746 325.852 657.298 326.556C658.607 328.693 659.088 331.498 661.171 332.887C662.445 333.632 663.927 333.941 665.392 333.769C666.861 333.769 668.304 333.421 669.773 333.501C670.744 333.709 671.756 333.597 672.658 333.181C672.994 332.929 673.262 332.596 673.435 332.213C673.607 331.83 673.68 331.409 673.646 330.99C673.491 329.671 673.025 328.407 672.284 327.304C671.456 325.862 670.681 324.312 669.933 322.763Z" fill="#FDB9A9"/>
<path d="M731.907 490.065C723.412 488.141 725.068 500.189 722.824 504.676C721.404 506.981 719.597 509.023 717.482 510.714C715.399 512.447 714.037 514.895 713.662 517.579C713.612 518.078 713.714 518.581 713.956 519.021C714.389 519.55 714.994 519.909 715.665 520.036C720.522 521.455 725.74 520.938 730.224 518.594C732.324 517.603 734.068 515.99 735.219 513.972C736.15 511.798 736.588 509.444 736.501 507.081C736.768 502.059 739.012 491.641 731.907 490.065Z" fill="#FDB9A9"/>
<path d="M724.374 514.907C724.374 514.907 700.172 515.949 710.43 523.536C720.687 531.122 735.994 521.692 737.49 519.956C738.985 518.22 737.757 515.255 737.757 515.255L724.374 514.907Z" fill="#388CEF"/>
<path d="M736.421 518.246C734.284 520.918 722.905 524.417 717.856 524.043C712.807 523.669 708.293 521.372 708.8 518.086C709.308 514.801 718.176 507.241 719.859 507.268C721.542 507.294 722.851 511.168 726.217 511.969C727.721 512.218 729.264 512.079 730.699 511.565C732.134 511.051 733.414 510.178 734.418 509.031C734.718 508.629 735.145 508.34 735.629 508.209C736.113 508.079 736.627 508.114 737.089 508.309C737.793 509.895 738.1 511.629 737.984 513.36C737.867 515.092 737.331 516.769 736.421 518.246Z" fill="white"/>
<path d="M761.104 494.819C752.609 492.843 754.265 504.917 752.021 509.378C750.602 511.691 748.794 513.742 746.679 515.442C744.598 517.166 743.236 519.604 742.859 522.28C742.815 522.788 742.917 523.298 743.153 523.749C743.593 524.269 744.195 524.627 744.862 524.764C749.72 526.171 754.933 525.655 759.421 523.322C761.517 522.313 763.259 520.692 764.416 518.674C765.343 516.508 765.781 514.164 765.698 511.809C765.965 506.733 768.209 496.342 761.104 494.819Z" fill="#FDB9A9"/>
<path d="M753.571 519.555C753.571 519.555 729.369 520.571 739.626 528.21C749.884 535.85 765.191 526.34 766.686 524.604C768.182 522.868 766.954 519.903 766.954 519.903L753.571 519.555Z" fill="#388CEF"/>
<path d="M765.618 522.841C763.481 525.512 752.101 529.038 747.053 528.664C742.004 528.29 737.489 525.993 737.997 522.708C738.505 519.422 747.373 511.862 749.056 512.022C750.739 512.183 752.048 515.923 755.414 516.697C756.916 516.952 758.458 516.819 759.893 516.309C761.329 515.799 762.61 514.931 763.614 513.785C763.912 513.38 764.338 513.088 764.824 512.957C765.309 512.826 765.825 512.864 766.286 513.064C766.962 514.629 767.255 516.333 767.139 518.034C767.023 519.735 766.501 521.383 765.618 522.841Z" fill="white"/>
<path d="M739.172 384.95L750.552 504.73L766.954 502.7C773.445 473.476 771.842 386.045 771.842 386.045L739.172 384.95Z" fill="#473F47"/>
<path d="M750.552 381.718L739.172 501.471L722.717 499.441C713.341 423.684 721.088 376.562 721.088 376.562L750.552 381.718Z" fill="#473F47"/>
<path d="M722.584 338.417C722.37 336.226 721.782 334.036 721.569 331.792C721.034 327.278 721.115 322.713 721.809 318.222C722.582 313.429 724.03 308.771 726.11 304.385C727.98 300.591 731.452 299.042 735.246 297.065C738.472 295.331 741.966 294.148 745.583 293.566C748.128 293.333 750.694 293.477 753.196 293.993C760.943 295.463 771.121 299.336 776.41 305.56C780.39 310.128 780.844 316.699 780.978 322.763C781.138 331.124 780.978 339.485 780.443 347.846C780.443 349.048 780.31 350.25 780.203 351.479C779.772 360.781 778.366 370.012 776.009 379.02C775.567 381.834 774.043 384.365 771.762 386.072C765.698 389.598 756.455 387.648 749.911 386.74C741.229 385.511 732.334 384.229 724.641 380.008C723.044 379.323 721.752 378.079 721.008 376.509C720.624 374.532 720.877 372.484 721.729 370.659C724.4 362.111 722.317 353.109 722.317 344.374C722.317 342.797 722.504 341.195 722.504 339.592C722.584 339.218 722.584 338.817 722.584 338.417Z" fill="white"/>
<path d="M749.831 353.883C751.89 355.164 754.16 356.069 756.536 356.555C763.614 358.611 770.88 359.707 777.906 361.897C778.384 361.99 778.827 362.212 779.188 362.538C779.475 362.981 779.607 363.508 779.562 364.034C779.595 366.092 779.288 368.14 778.654 370.098C778.448 371.075 777.886 371.942 777.078 372.529C776.051 372.902 774.926 372.902 773.899 372.529L747.427 366.919C745.533 366.435 743.584 366.202 741.63 366.225C739.314 366.494 737.043 367.06 734.872 367.907C730.812 369.208 726.633 370.102 722.397 370.579C722.622 365.526 723.238 360.497 724.24 355.539C724.629 354.074 725.184 352.658 725.896 351.319C726.75 349.997 727.754 348.778 728.888 347.686C733.162 343.225 736.127 337.642 740.455 333.181C742.725 330.83 745.557 329.334 747.56 326.823C748.362 325.808 755.307 317.073 754.639 316.138C755.975 317.794 759.287 316.138 760.489 317.848C761.237 318.916 760.489 320.359 759.795 321.454C754.677 330.025 751.105 339.428 749.243 349.235C748.709 351.506 747.907 352.307 749.831 353.883Z" fill="url(#paint9_linear_2_237)"/>
<path d="M728.247 244.228C730.703 245.805 732.632 248.08 733.787 250.761C734.943 253.442 735.272 256.406 734.733 259.275C734.193 262.144 732.81 264.787 730.76 266.865C728.71 268.943 726.086 270.362 723.225 270.94C723.225 270.94 708.052 276.657 716.574 289.853L758.726 316.699L732.014 358.852C718.817 367.373 713.101 352.2 713.101 352.2C712.527 349.336 711.108 346.709 709.029 344.657C706.949 342.605 704.302 341.222 701.43 340.687C698.558 340.152 695.592 340.488 692.912 341.653C690.233 342.817 687.963 344.757 686.396 347.222C684.828 349.688 684.034 352.566 684.115 355.486C684.197 358.407 685.15 361.236 686.853 363.61C688.556 365.984 690.93 367.794 693.67 368.807C696.41 369.821 699.391 369.991 702.229 369.296C716.921 369.003 716.28 383.614 716.28 383.614L689.567 425.767L580.472 356.314L607.051 314.535C620.248 306.041 625.964 321.187 625.964 321.187C626.53 324.062 627.944 326.702 630.025 328.766C632.105 330.83 634.756 332.223 637.636 332.766C640.515 333.309 643.491 332.977 646.181 331.813C648.87 330.648 651.148 328.705 652.723 326.233C654.297 323.762 655.095 320.875 655.013 317.946C654.931 315.016 653.974 312.179 652.264 309.799C650.554 307.419 648.171 305.606 645.421 304.593C642.671 303.58 639.681 303.415 636.836 304.117C622.144 304.411 622.812 289.799 622.812 289.799L649.899 247.219L692.078 274.092C692.078 274.092 706.69 274.733 706.396 260.041C705.93 258.112 705.855 256.108 706.176 254.149C706.497 252.19 707.208 250.315 708.266 248.635C710.37 245.447 713.633 243.204 717.363 242.381C721.093 241.558 724.997 242.221 728.247 244.228Z" fill="#388CEF"/>
<path d="M793.292 330.59C794.386 332.496 795.282 334.51 795.964 336.6C796.827 340.263 796.918 344.066 796.231 347.766C795.908 351.393 794.606 354.865 792.464 357.81C787.95 363.152 779.883 363.66 772.884 362.992C764.939 362.259 757.095 360.683 749.484 358.291C748.776 358.132 748.111 357.822 747.533 357.383C746.917 356.684 746.493 355.837 746.305 354.925C745.721 352.711 745.337 350.449 745.156 348.167C753.17 345.869 762.038 347.739 770.4 346.51C770.969 346.508 771.53 346.37 772.036 346.107C772.541 345.844 772.977 345.464 773.306 344.999C773.635 344.534 773.849 343.997 773.928 343.433C774.008 342.869 773.952 342.294 773.765 341.756C773.365 337.054 770.453 332.94 769.091 328.399C767.756 324.029 767.868 319.344 769.411 315.043C769.871 313.527 770.653 312.128 771.705 310.943C772.756 309.758 774.051 308.815 775.502 308.178C778.841 307.083 780.123 309.7 781.966 312.158C786.209 318.002 789.995 324.164 793.292 330.59V330.59Z" fill="white"/>
<path d="M741.817 345.175C741.502 344.918 741.124 344.752 740.722 344.694C740.414 344.726 740.121 344.839 739.872 345.023C739.623 345.206 739.428 345.452 739.306 345.736C739.071 346.312 738.804 346.874 738.505 347.419C738.103 347.864 737.607 348.213 737.052 348.44C736.497 348.667 735.897 348.765 735.299 348.728C734.1 348.607 732.892 348.607 731.693 348.728C731.249 348.818 730.835 349.021 730.491 349.315C730.163 349.637 729.931 350.044 729.823 350.491C729.619 351.398 729.645 352.342 729.896 353.237C730.148 354.133 730.619 354.951 731.265 355.62C732.57 356.942 734.173 357.931 735.94 358.505C737.743 359.301 739.742 359.542 741.683 359.199C742.749 358.889 743.765 358.431 744.702 357.837L748.602 355.673C748.927 355.519 749.218 355.301 749.457 355.032C750.312 353.963 749.136 350.758 748.362 349.689C746.412 347.873 744.207 346.352 741.817 345.175V345.175Z" fill="#FDB9A9"/>
<path d="M739.199 281.438C739.199 279.141 739.386 276.817 739.627 274.573C739.867 272.329 740.161 270.566 740.535 268.59C740.56 268.004 740.712 267.432 740.979 266.911C741.246 266.39 741.623 265.933 742.084 265.571C745.172 263.727 748.72 262.801 752.315 262.9C753.675 262.804 755.039 262.992 756.322 263.452C757.605 263.912 758.779 264.633 759.768 265.571C760.974 267.105 761.691 268.967 761.825 270.914C761.95 275.969 761.447 281.021 760.329 285.953C759.764 289.826 759.559 293.742 759.714 297.653C757.821 298.912 755.647 299.682 753.384 299.897C752.331 299.887 751.286 299.716 750.285 299.389C749.728 299.263 749.235 298.941 748.896 298.481C748.776 298.053 748.776 297.6 748.896 297.172C748.922 296.763 748.922 296.353 748.896 295.943C749.052 293.655 749.007 291.358 748.762 289.078C748.767 288.979 748.75 288.88 748.713 288.788C748.676 288.696 748.62 288.613 748.549 288.544C748.402 288.491 748.241 288.491 748.094 288.544H747.453C746.317 288.664 745.171 288.664 744.034 288.544C742.667 288.41 741.394 287.783 740.455 286.781C739.369 285.226 738.92 283.314 739.199 281.438V281.438Z" fill="#FDB9A9"/>
<path d="M743.954 266.8C743.153 266.8 742.431 267.227 741.737 266.8C741.01 266.198 740.372 265.496 739.84 264.716C738.564 263.023 737.938 260.928 738.077 258.813C738.127 257.855 738.441 256.931 738.985 256.141C739.578 255.423 740.34 254.864 741.203 254.512C742.859 253.696 744.703 253.337 746.545 253.47C749.214 253.817 751.703 255.005 753.651 256.863C754.061 257.291 754.563 257.62 755.12 257.824C755.631 257.932 756.158 257.932 756.669 257.824C760.05 257.54 763.409 258.574 766.045 260.709C767.541 262.018 768.717 263.701 770.266 264.85C771.815 265.998 773.338 266.426 774.139 267.895C774.474 268.578 774.609 269.341 774.529 270.098C774.449 270.854 774.156 271.572 773.685 272.169C772.691 273.34 771.323 274.133 769.812 274.413C769.978 274.848 770.056 275.311 770.04 275.776C770.025 276.241 769.917 276.698 769.723 277.121C769.529 277.544 769.253 277.924 768.91 278.238C768.568 278.553 768.166 278.797 767.728 278.954C767.111 279.048 766.515 279.247 765.965 279.542C765.591 279.836 765.431 280.29 765.057 280.584C764.175 281.305 763.027 281.545 762.653 282.774C762.541 283.291 762.496 283.821 762.519 284.35C762.455 285.134 762.136 285.875 761.611 286.46C761.264 286.834 760.649 287.769 760.142 287.876C759.634 287.983 759.18 287.369 759.02 286.834C758.394 284.569 758.554 282.158 759.474 279.996C760.135 278.952 760.521 277.757 760.596 276.523C760.596 275.294 758.833 274.333 757.925 275.054C757.016 275.775 756.963 277.512 756.001 277.164C756.598 275.438 756.554 273.554 755.877 271.857C755.2 270.161 753.936 268.764 752.315 267.922C750.516 267.371 748.64 267.11 746.759 267.147C745.88 266.962 744.985 266.863 744.087 266.853L743.954 266.8Z" fill="#473F47"/>
<path d="M747.453 288.597C750.106 288.092 752.701 287.323 755.2 286.3C755.425 288.405 754.919 290.524 753.766 292.299C752.613 294.075 750.884 295.399 748.869 296.05V296.05C749.07 293.766 749.07 291.469 748.869 289.185C748.867 288.987 748.79 288.796 748.655 288.651C748.509 288.598 748.348 288.598 748.201 288.651H747.587L747.453 288.597Z" fill="#DE9F93"/>
<path d="M663.816 307.804C664.221 308.384 664.483 309.052 664.58 309.753C664.678 310.454 664.608 311.169 664.377 311.837C663.913 313.175 663.237 314.429 662.373 315.551L658.18 321.748C657.084 323.351 655.508 325.167 653.665 325.007C649.071 324.686 647.04 312.772 648.75 309.246C650.727 304.839 660.797 304.037 663.816 307.804Z" fill="#FDB9A9"/>
<path d="M685.453 414.361V543.677H556.164V493.671C556.164 493.671 563.456 481.009 575.691 489.13C577.713 491.249 580.324 492.715 583.187 493.337C586.05 493.958 589.034 493.709 591.754 492.619C594.473 491.53 596.805 489.651 598.446 487.224C600.088 484.798 600.966 481.935 600.966 479.006C600.966 476.076 600.088 473.213 598.446 470.787C596.805 468.36 594.473 466.481 591.754 465.392C589.034 464.302 586.05 464.053 583.187 464.675C580.324 465.297 577.713 466.762 575.691 468.881C575.691 468.881 562.735 478.605 556.164 464.34V414.361H606.143C620.408 407.789 610.684 394.834 610.684 394.834C608.565 392.811 607.099 390.2 606.477 387.337C605.855 384.474 606.105 381.49 607.195 378.771C608.284 376.051 610.163 373.72 612.59 372.078C615.016 370.436 617.879 369.559 620.808 369.559C623.738 369.559 626.601 370.436 629.027 372.078C631.454 373.72 633.333 376.051 634.422 378.771C635.512 381.49 635.761 384.474 635.139 387.337C634.517 390.2 633.052 392.811 630.933 394.834C622.919 407.068 635.474 414.361 635.474 414.361H685.453Z" fill="#388CEF"/>
<path d="M685.453 414.361V543.677H556.164V493.671C556.164 493.671 563.456 481.009 575.691 489.13C577.713 491.249 580.324 492.715 583.187 493.337C586.05 493.958 589.034 493.709 591.754 492.619C594.473 491.53 596.805 489.651 598.446 487.224C600.088 484.798 600.966 481.935 600.966 479.006C600.966 476.076 600.088 473.213 598.446 470.787C596.805 468.36 594.473 466.481 591.754 465.392C589.034 464.302 586.05 464.053 583.187 464.675C580.324 465.297 577.713 466.762 575.691 468.881C575.691 468.881 562.735 478.605 556.164 464.34V414.361H606.143C620.408 407.789 610.684 394.834 610.684 394.834C608.565 392.811 607.099 390.2 606.477 387.337C605.855 384.474 606.105 381.49 607.195 378.771C608.284 376.051 610.163 373.72 612.59 372.078C615.016 370.436 617.879 369.559 620.808 369.559C623.738 369.559 626.601 370.436 629.027 372.078C631.454 373.72 633.333 376.051 634.422 378.771C635.512 381.49 635.761 384.474 635.139 387.337C634.517 390.2 633.052 392.811 630.933 394.834C622.919 407.068 635.474 414.361 635.474 414.361H685.453Z" fill="url(#paint10_linear_2_237)"/>
<path d="M471.698 349.689C471.69 352.618 470.806 355.477 469.161 357.899C467.516 360.322 465.184 362.198 462.465 363.286C459.747 364.374 456.765 364.624 453.902 364.006C451.04 363.387 448.428 361.927 446.401 359.813C434.167 351.8 426.874 364.355 426.874 364.355V414.361H556.164V285.045H426.874V335.024C433.446 349.289 446.401 339.565 446.401 339.565C448.428 337.451 451.04 335.992 453.902 335.373C456.765 334.754 459.747 335.005 462.465 336.093C465.184 337.181 467.516 339.057 469.161 341.479C470.806 343.902 471.69 346.761 471.698 349.689V349.689Z" fill="#388CEF"/>
<path d="M481.395 433.888C479.275 435.91 477.81 438.521 477.188 441.384C476.566 444.247 476.816 447.231 477.905 449.951C478.995 452.671 480.874 455.002 483.3 456.644C485.727 458.286 488.589 459.163 491.519 459.163C494.449 459.163 497.311 458.286 499.738 456.644C502.164 455.002 504.043 452.671 505.133 449.951C506.222 447.231 506.472 444.247 505.85 441.384C505.228 438.521 503.763 435.91 501.643 433.888C501.643 433.888 491.92 420.932 506.184 414.361H476.827C476.827 414.361 489.516 421.653 481.395 433.888Z" fill="#388CEF"/>
<path d="M426.874 285.045V335.024C433.446 349.289 446.401 339.565 446.401 339.565C448.424 337.446 451.035 335.98 453.898 335.358C456.761 334.736 459.745 334.986 462.464 336.076C465.184 337.165 467.515 339.044 469.157 341.47C470.799 343.897 471.677 346.76 471.677 349.689C471.677 352.619 470.799 355.482 469.157 357.908C467.515 360.335 465.184 362.214 462.464 363.303C459.745 364.392 456.761 364.642 453.898 364.02C451.035 363.398 448.424 361.933 446.401 359.813C434.167 351.8 426.874 364.355 426.874 364.355V414.361H476.827C476.827 414.361 489.489 421.653 481.368 433.888C479.249 435.91 477.783 438.521 477.161 441.384C476.539 444.247 476.789 447.231 477.879 449.951C478.968 452.671 480.847 455.002 483.274 456.644C485.7 458.286 488.563 459.163 491.492 459.163C494.422 459.163 497.285 458.286 499.711 456.644C502.138 455.002 504.017 452.671 505.106 449.951C506.196 447.231 506.445 444.247 505.823 441.384C505.201 438.521 503.736 435.91 501.616 433.888C501.616 433.888 491.893 420.932 506.158 414.361H556.164V285.045H426.874Z" fill="url(#paint11_linear_2_237)"/>
<path d="M426.874 414.361V543.677H556.164V493.671C556.164 493.671 563.456 481.009 575.691 489.13C577.713 491.249 580.324 492.715 583.187 493.337C586.05 493.959 589.034 493.709 591.754 492.619C594.474 491.53 596.805 489.651 598.447 487.224C600.089 484.798 600.966 481.935 600.966 479.006C600.966 476.076 600.089 473.213 598.447 470.787C596.805 468.36 594.474 466.481 591.754 465.392C589.034 464.302 586.05 464.053 583.187 464.675C580.324 465.297 577.713 466.762 575.691 468.881C575.691 468.881 562.735 478.605 556.164 464.34V414.361H506.211C491.946 420.932 501.67 433.888 501.67 433.888C503.79 435.91 505.255 438.521 505.877 441.384C506.499 444.247 506.249 447.231 505.16 449.951C504.07 452.671 502.191 455.002 499.765 456.644C497.338 458.286 494.476 459.163 491.546 459.163C488.616 459.163 485.753 458.286 483.327 456.644C480.9 455.002 479.021 452.671 477.932 449.951C476.843 447.231 476.593 444.247 477.215 441.384C477.837 438.521 479.302 435.91 481.422 433.888C489.436 421.653 476.881 414.361 476.881 414.361H426.874Z" fill="#388CEF"/>
<path d="M297.852 543.677V493.698C304.423 479.433 317.379 489.156 317.379 489.156C319.402 491.276 322.013 492.741 324.876 493.363C327.739 493.985 330.722 493.735 333.442 492.646C336.162 491.557 338.493 489.678 340.135 487.251C341.777 484.825 342.654 481.962 342.654 479.032C342.654 476.102 341.777 473.24 340.135 470.813C338.493 468.387 336.162 466.508 333.442 465.418C330.722 464.329 327.739 464.079 324.876 464.701C322.013 465.323 319.402 466.788 317.379 468.908C305.145 476.922 297.852 464.367 297.852 464.367V414.361H347.831C347.831 414.361 360.493 407.068 352.373 394.834C350.253 392.811 348.788 390.2 348.166 387.337C347.544 384.474 347.794 381.49 348.883 378.771C349.972 376.051 351.851 373.72 354.278 372.078C356.704 370.436 359.567 369.559 362.497 369.559C365.426 369.559 368.289 370.436 370.716 372.078C373.142 373.72 375.021 376.051 376.11 378.771C377.2 381.49 377.45 384.474 376.828 387.337C376.206 390.2 374.74 392.811 372.621 394.834C372.621 394.834 362.897 407.789 377.162 414.361H427.141V543.677H297.852Z" fill="#388CEF"/>
<path d="M297.852 543.677V493.698C304.423 479.433 317.379 489.156 317.379 489.156C319.402 491.276 322.013 492.741 324.876 493.363C327.739 493.985 330.722 493.735 333.442 492.646C336.162 491.557 338.493 489.678 340.135 487.251C341.777 484.825 342.654 481.962 342.654 479.032C342.654 476.102 341.777 473.24 340.135 470.813C338.493 468.387 336.162 466.508 333.442 465.418C330.722 464.329 327.739 464.079 324.876 464.701C322.013 465.323 319.402 466.788 317.379 468.908C305.145 476.922 297.852 464.367 297.852 464.367V414.361H347.831C347.831 414.361 360.493 407.068 352.373 394.834C350.253 392.811 348.788 390.2 348.166 387.337C347.544 384.474 347.794 381.49 348.883 378.771C349.972 376.051 351.851 373.72 354.278 372.078C356.704 370.436 359.567 369.559 362.497 369.559C365.426 369.559 368.289 370.436 370.716 372.078C373.142 373.72 375.021 376.051 376.11 378.771C377.2 381.49 377.45 384.474 376.828 387.337C376.206 390.2 374.74 392.811 372.621 394.834C372.621 394.834 362.897 407.789 377.162 414.361H427.141V543.677H297.852Z" fill="url(#paint12_linear_2_237)"/>
<path d="M471.858 349.716C471.85 352.644 470.966 355.503 469.321 357.926C467.676 360.349 465.344 362.224 462.626 363.312C459.907 364.4 456.925 364.651 454.063 364.033C451.2 363.414 448.588 361.954 446.562 359.84C446.562 359.84 433.606 350.117 427.035 364.381V414.361H377.055C362.791 407.789 372.514 394.834 372.514 394.834C374.634 392.811 376.099 390.2 376.721 387.337C377.343 384.474 377.093 381.49 376.004 378.771C374.914 376.051 373.035 373.72 370.609 372.078C368.182 370.436 365.32 369.559 362.39 369.559C359.46 369.559 356.597 370.436 354.171 372.078C351.745 373.72 349.865 376.051 348.776 378.771C347.687 381.49 347.437 384.474 348.059 387.337C348.681 390.2 350.146 392.811 352.266 394.834C360.28 407.068 347.725 414.361 347.725 414.361H297.852V285.045H347.351C361.615 291.616 351.892 304.572 351.892 304.572C349.772 306.594 348.307 309.205 347.685 312.068C347.063 314.931 347.313 317.915 348.402 320.635C349.491 323.354 351.371 325.685 353.797 327.327C356.223 328.969 359.086 329.847 362.016 329.847C364.946 329.847 367.808 328.969 370.235 327.327C372.661 325.685 374.54 323.354 375.63 320.635C376.719 317.915 376.969 314.931 376.347 312.068C375.725 309.205 374.26 306.594 372.14 304.572C364.126 292.337 376.681 285.045 376.681 285.045H427.141V335.051C427.141 335.051 434.434 347.713 446.668 339.592C448.695 337.478 451.307 336.018 454.169 335.4C457.032 334.781 460.014 335.032 462.732 336.12C465.451 337.208 467.783 339.084 469.428 341.506C471.073 343.929 471.957 346.788 471.965 349.716H471.858Z" fill="#388CEF"/>
<path d="M503.54 598.198C503.586 601.13 502.752 604.009 501.146 606.463C499.54 608.917 497.234 610.832 494.528 611.963C491.822 613.093 488.839 613.386 485.964 612.803C483.09 612.221 480.456 610.79 478.403 608.696C478.403 608.696 465.314 599.159 458.956 613.504L459.678 663.484L409.698 664.205C395.327 657.847 404.863 644.758 404.863 644.758C406.944 642.706 408.363 640.079 408.938 637.214C409.513 634.349 409.217 631.377 408.089 628.682C406.961 625.986 405.051 623.69 402.607 622.089C400.163 620.488 397.295 619.654 394.373 619.697C391.451 619.739 388.609 620.655 386.212 622.327C383.815 623.998 381.973 626.349 380.924 629.076C379.874 631.803 379.665 634.782 380.323 637.629C380.98 640.476 382.475 643.061 384.615 645.052C392.922 657.153 380.367 664.632 380.367 664.632L330.388 665.353L328.518 536.037L378.017 535.343C392.388 541.7 382.852 554.79 382.852 554.79C380.771 556.841 379.352 559.469 378.777 562.334C378.202 565.199 378.498 568.17 379.626 570.866C380.754 573.561 382.663 575.857 385.108 577.459C387.552 579.06 390.42 579.893 393.342 579.851C396.264 579.808 399.106 578.892 401.503 577.221C403.9 575.549 405.741 573.199 406.791 570.472C407.841 567.744 408.05 564.765 407.392 561.918C406.734 559.071 405.239 556.486 403.1 554.496C394.792 542.395 407.347 534.915 407.347 534.915L457.808 534.194L458.529 584.2C458.529 584.2 466.008 596.755 478.109 588.448C479.481 586.984 481.135 585.813 482.971 585.005C484.808 584.197 486.788 583.769 488.794 583.746C492.663 583.718 496.386 585.222 499.149 587.93C501.912 590.638 503.49 594.329 503.54 598.198V598.198Z" fill="#388CEF"/>
<path d="M346.629 536.518C344.84 538.495 343.45 542.849 346.282 544.692C347.295 545.238 348.418 545.549 349.568 545.6L364.687 547.443C364.233 547.443 372.14 636.53 375.239 655.47C375.613 657.714 376.547 660.518 378.818 660.812C379.499 660.771 380.161 660.571 380.75 660.228C381.339 659.885 381.839 659.408 382.211 658.835C384.393 655.416 385.637 651.482 385.817 647.429C389.572 618.35 391.357 589.051 391.159 559.731C391.159 553.935 390.946 547.871 388.061 542.822C386.289 540.076 383.966 537.727 381.239 535.924C378.513 534.122 375.441 532.905 372.22 532.351C363.592 530.401 352.907 529.519 346.629 536.518Z" fill="url(#paint13_linear_2_237)"/>
<path d="M383.012 721.423V721.77C383.653 723.4 385.683 723.934 387.393 724.148C389.007 724.325 390.631 724.397 392.255 724.362C393.033 724.39 393.811 724.282 394.552 724.041C395.231 723.742 395.869 723.356 396.449 722.892L401.123 719.42C402.437 718.514 403.638 717.456 404.703 716.268C405.755 715.046 406.308 713.472 406.252 711.86C406.196 711.064 405.897 710.304 405.396 709.683C404.894 709.062 404.214 708.61 403.447 708.387C402.471 708.268 401.485 708.268 400.509 708.387C399.424 708.526 398.321 708.348 397.335 707.874C396.349 707.4 395.522 706.651 394.953 705.716C394.759 704.844 394.291 704.058 393.617 703.472C392.937 703.142 392.166 703.048 391.427 703.205C389.805 703.287 388.203 703.601 386.672 704.14C385.899 704.417 385.199 704.863 384.621 705.445C384.043 706.027 383.603 706.731 383.333 707.506C383.169 708.224 383.097 708.96 383.119 709.696C383.212 711.218 383.212 712.743 383.119 714.264C382.906 716.162 382.799 718.071 382.798 719.981C382.813 720.468 382.885 720.952 383.012 721.423V721.423Z" fill="#262836"/>
<path d="M428.344 722.038C425.196 723.478 421.957 724.71 418.647 725.724C417.329 726.293 415.854 726.378 414.48 725.964C413.941 725.703 413.464 725.33 413.082 724.869C412.699 724.408 412.42 723.871 412.262 723.293C411.974 722.114 411.857 720.899 411.915 719.687C412.12 717.811 412.504 715.959 413.064 714.157C413.358 712.475 413.598 710.792 413.812 709.109C414.159 706.678 414.48 704.274 414.773 701.87L423.188 703.659C424.069 703.846 424.898 707.239 425.432 707.96C425.823 708.491 426.329 708.928 426.911 709.238C427.494 709.547 428.138 709.722 428.798 709.75C430.231 709.542 431.677 709.426 433.125 709.403C434.059 709.621 434.893 710.144 435.498 710.889C436.102 711.633 436.442 712.558 436.464 713.516C436.457 714.469 436.251 715.41 435.86 716.28C435.469 717.149 434.902 717.927 434.194 718.565C432.777 719.848 431.151 720.878 429.385 721.61L428.344 722.038Z" fill="#262836"/>
<path d="M428.477 712.635C426.269 713.89 423.975 714.988 421.612 715.921H421.398C417.498 717.443 413.144 711.326 413.144 711.326C413.144 711.326 407.641 677.347 407.802 663.243C407.988 653.573 405.691 639.789 402.245 614.786C401.39 640.324 397.063 651.543 398.158 660.705C399.841 674.623 397.838 709.189 397.838 709.189C397.838 709.189 394.151 715.921 390.118 715.012H389.877C387.449 714.46 385.065 713.728 382.745 712.822C382.745 712.822 378.044 665.22 378.044 652.665C378.044 640.11 378.578 628.864 378.578 628.864L376.12 589.115L386.592 573.889L387.446 573.542L388.248 572.74L399.868 564.219C399.868 564.219 399.868 566.196 399.654 569.562L408.683 574.397L409.538 575.038L410.419 575.251L425.539 577.923C425.539 577.923 429.492 638.908 430.881 651.383C432.27 663.857 428.477 712.635 428.477 712.635Z" fill="#388CEF"/>
<path d="M428.477 712.635C426.269 713.89 423.975 714.988 421.612 715.921H421.398C417.498 717.443 413.144 711.326 413.144 711.326C413.144 711.326 407.641 677.347 407.802 663.243C407.988 653.573 405.691 639.789 402.245 614.786C401.39 640.324 397.063 651.543 398.158 660.705C399.841 674.623 397.838 709.189 397.838 709.189C397.838 709.189 394.151 715.921 390.118 715.012H389.877C387.449 714.46 385.065 713.728 382.745 712.822C382.745 712.822 378.044 665.22 378.044 652.665C378.044 640.11 378.578 628.864 378.578 628.864L376.12 589.115L386.592 573.889L387.446 573.542L388.248 572.74L399.868 564.219C399.868 564.219 399.868 566.196 399.654 569.562L408.683 574.397L409.538 575.038L410.419 575.251L425.539 577.923C425.539 577.923 429.492 638.908 430.881 651.383C432.27 663.857 428.477 712.635 428.477 712.635Z" fill="url(#paint14_linear_2_237)"/>
<path d="M499.64 500.055C499.827 499.921 500.051 499.847 500.281 499.841C500.895 499.841 500.922 500.83 500.708 501.418C500.15 503.056 499.339 504.597 498.304 505.985C497.969 506.331 497.77 506.787 497.743 507.268C497.743 507.748 498.171 508.096 498.491 508.443C499.474 509.584 500.173 510.941 500.53 512.403C500.888 513.866 500.894 515.392 500.548 516.858C499.807 519.783 498.284 522.452 496.14 524.577C495.624 525.234 494.983 525.783 494.254 526.191C493.525 526.599 492.723 526.858 491.893 526.955C489.008 526.955 485.402 523.402 484.253 520.945C483.835 519.717 483.743 518.402 483.987 517.128C484.23 515.854 484.801 514.665 485.642 513.679C489.051 508.003 493.874 503.309 499.64 500.055V500.055Z" fill="#A67C52"/>
<path d="M415.949 472.007C416.884 472.968 418.326 473.957 417.925 475.212C417.712 475.88 416.991 476.281 416.456 476.762C415.138 478.16 414.427 480.023 414.48 481.944C414.536 483.855 414.265 485.761 413.678 487.58C413.345 488.48 412.711 489.238 411.883 489.725C411.056 490.211 410.086 490.397 409.137 490.252C408.042 489.958 406.947 488.996 405.878 489.45C404.81 489.904 404.81 490.786 404.382 491.534C403.799 492.454 402.969 493.193 401.987 493.665C401.004 494.137 399.909 494.324 398.826 494.205C396.683 493.883 394.618 493.168 392.735 492.095C391.936 491.776 391.241 491.239 390.732 490.545C390.421 489.868 390.346 489.107 390.518 488.382C391.178 486.207 392.258 484.184 393.697 482.425C396 478.875 397.386 474.809 397.731 470.591C397.944 467.653 397.731 464.42 399.627 462.15C402.299 459.051 408.362 459.078 411.541 461.348C414.72 463.619 413.01 468.988 415.949 472.007Z" fill="#A67C52"/>
<path d="M412.156 458.704C411.783 459.436 411.22 460.054 410.526 460.494C409.11 461.322 407.855 462.283 406.573 463.165C405.28 464.017 404.37 465.339 404.035 466.851C403.474 469.523 404.97 472.568 404.035 475.266C403.688 475.827 402.806 475.479 402.459 474.945C402.112 474.411 401.898 473.743 401.364 473.423C400.429 472.888 399.307 473.797 398.906 474.785C398.492 475.934 398.539 477.199 399.037 478.315C399.535 479.43 400.445 480.309 401.577 480.769C401.444 481.623 400.349 481.971 399.467 481.864C398.597 481.625 397.698 481.508 396.796 481.516C394.792 481.89 394.125 484.749 392.041 485.043C391.351 484.997 390.681 484.792 390.083 484.444C389.486 484.097 388.976 483.616 388.595 483.039L386.164 480.368C385.772 479.848 385.344 479.357 384.882 478.899C384.321 478.471 383.413 478.445 382.959 477.937C382.505 477.429 382.959 476.227 382.478 475.586C382.25 475.348 381.965 475.173 381.65 475.079C380.95 474.725 380.394 474.142 380.073 473.428C379.752 472.713 379.686 471.909 379.887 471.152C379.952 470.962 379.952 470.755 379.887 470.564C379.887 470.297 379.513 470.19 379.246 470.057C378.508 469.579 377.966 468.853 377.716 468.011C377.466 467.169 377.525 466.265 377.883 465.462C378.29 464.541 378.87 463.706 379.593 463.005C379.848 462.612 380.209 462.3 380.635 462.106C381.061 461.912 381.534 461.844 381.997 461.909L382.398 458.41C382.388 457.817 382.51 457.23 382.755 456.69C383 456.15 383.361 455.671 383.813 455.288C384.266 454.904 384.797 454.626 385.37 454.473C385.943 454.32 386.543 454.296 387.126 454.403L386.324 451.518C386.177 451.149 386.177 450.738 386.324 450.37C386.544 450.114 386.847 449.944 387.179 449.889C388.111 449.623 389.07 449.462 390.037 449.408C389.69 448.598 389.422 447.758 389.236 446.897C389.175 446.773 389.152 446.634 389.171 446.497C389.189 446.36 389.248 446.232 389.34 446.128C389.432 446.025 389.552 445.952 389.686 445.917C389.82 445.883 389.961 445.889 390.091 445.935C390.445 445.989 390.805 445.989 391.159 445.935C391.159 445.935 390.625 443.478 390.598 443.264C390.437 442.492 390.58 441.688 390.999 441.02C391.291 440.688 391.662 440.433 392.077 440.279C392.492 440.125 392.938 440.077 393.377 440.139C394.243 440.292 395.076 440.6 395.834 441.047C395.834 440.112 396.983 439.631 397.918 439.551C399.718 439.45 401.514 439.806 403.139 440.586C404.765 441.366 406.166 442.544 407.214 444.012C407.387 444.27 407.583 444.512 407.801 444.733C408.228 445.005 408.698 445.204 409.19 445.321C409.948 445.656 410.622 446.156 411.163 446.785C411.703 447.413 412.097 448.154 412.316 448.954C412.716 450.542 412.878 452.18 412.797 453.815C412.858 455.072 412.741 456.331 412.449 457.555C412.396 457.948 412.298 458.334 412.156 458.704Z" fill="#2F3554"/>
<path d="M398.879 488.996C401.104 489.928 403.264 491.008 405.344 492.228C405.986 492.573 406.542 493.057 406.973 493.644C407.204 493.966 407.345 494.343 407.382 494.737C407.42 495.131 407.352 495.528 407.187 495.888C406.626 496.876 405.29 496.529 404.275 496.155C399.568 494.558 394.601 493.869 389.637 494.125C389.305 494.18 388.964 494.141 388.653 494.014C388.342 493.887 388.072 493.675 387.874 493.404C387.758 493.076 387.715 492.727 387.748 492.382C387.78 492.036 387.887 491.701 388.061 491.4C390.598 486.298 394.739 487.126 398.879 488.996Z" fill="white"/>
<path d="M490.317 528.371C489.352 530.769 487.927 532.956 486.123 534.808C484.387 536.758 482.597 538.628 480.781 540.445C476.392 544.687 471.763 548.674 466.917 552.385C463.624 555.294 459.701 557.397 455.457 558.529C453.735 558.932 451.933 558.821 450.275 558.209C448.926 557.536 447.705 556.632 446.668 555.537C445.44 554.309 431.175 537.88 430.935 537.88C430.125 538.315 429.499 539.026 429.172 539.884C427.111 544.154 425.835 548.759 425.405 553.481C425.231 555.587 425.231 557.705 425.405 559.812C425.966 566.997 428.477 574.397 425.993 581.182C425.497 582.616 424.673 583.914 423.589 584.975C422.543 585.889 421.339 586.604 420.036 587.085C417.733 588.028 415.332 588.709 412.877 589.115C411.475 589.374 410.055 589.525 408.63 589.569C403.287 589.783 398.212 588.768 392.976 589.008C388.542 589.249 384.134 590.398 379.62 590.237C378.983 590.361 378.327 590.346 377.696 590.192C377.066 590.038 376.477 589.749 375.969 589.345C375.461 588.941 375.047 588.432 374.755 587.853C374.463 587.274 374.3 586.638 374.277 585.99C372.547 576.479 371.653 566.834 371.606 557.167C371.606 553.801 371.419 550.409 371.205 547.043C371.018 544.185 371.793 536.919 368.534 536.358C360.253 534.755 351.651 536.785 343.29 535.61C343.523 530.139 345.846 524.966 349.781 521.158C351.712 519.529 353.807 518.105 356.032 516.911C358.594 515.076 360.895 512.902 362.871 510.446C368.551 503.432 375.748 497.797 383.92 493.965C385.222 493.327 386.594 492.843 388.007 492.522H388.355C388.559 492.499 388.765 492.499 388.969 492.522C390.756 492.372 392.555 492.48 394.312 492.843C406.23 494.82 418.021 497.496 429.626 500.857C431.157 501.201 432.608 501.835 433.9 502.726C434.801 503.541 435.576 504.487 436.197 505.531C439.456 510.446 442.635 515.415 445.92 520.33C448.752 524.551 451.53 529.84 455.697 532.939C464.769 529.251 473.332 524.422 481.181 518.567C482.276 517.739 483.692 516.831 484.948 517.392C485.365 517.578 485.739 517.852 486.043 518.193C489.115 520.864 491.813 523.803 490.317 528.371Z" fill="white"/>
</g>
<defs>
<filter id="filter0_d_2_237" x="0" y="0" width="949" height="811.539" filterUnits="userSpaceOnUse" color-interpolation-filters="sRGB">
<feFlood flood-opacity="0" result="BackgroundImageFix"/>
<feColorMatrix in="SourceAlpha" type="matrix" values="0 0 0 0 0 0 0 0 0 0 0 0 0 0 0 0 0 0 127 0" result="hardAlpha"/>
<feOffset dy="4"/>
<feGaussianBlur stdDeviation="2"/>
<feComposite in2="hardAlpha" operator="out"/>
<feColorMatrix type="matrix" values="0 0 0 0 0 0 0 0 0 0 0 0 0 0 0 0 0 0 0.25 0"/>
<feBlend mode="normal" in2="BackgroundImageFix" result="effect1_dropShadow_2_237"/>
<feBlend mode="normal" in="SourceGraphic" in2="effect1_dropShadow_2_237" result="shape"/>
</filter>
<linearGradient id="paint0_linear_2_237" x1="401.577" y1="644.01" x2="407.107" y2="750.3" gradientUnits="userSpaceOnUse">
<stop offset="0.01"/>
<stop offset="0.08" stop-opacity="0.69"/>
<stop offset="0.21" stop-opacity="0.32"/>
<stop offset="1" stop-opacity="0"/>
</linearGradient>
<linearGradient id="paint1_linear_2_237" x1="441.54" y1="246.258" x2="464.726" y2="626.379" gradientUnits="userSpaceOnUse">
<stop offset="0.01"/>
<stop offset="0.08" stop-opacity="0.69"/>
<stop offset="0.21" stop-opacity="0.32"/>
<stop offset="1" stop-opacity="0"/>
</linearGradient>
<linearGradient id="paint2_linear_2_237" x1="230.268" y1="187.011" x2="291.434" y2="201.192" gradientUnits="userSpaceOnUse">
<stop offset="0.01"/>
<stop offset="0.08" stop-opacity="0.69"/>
<stop offset="0.21" stop-opacity="0.32"/>
<stop offset="1" stop-opacity="0"/>
</linearGradient>
<linearGradient id="paint3_linear_2_237" x1="444.887" y1="377.393" x2="213.269" y2="-92.8656" gradientUnits="userSpaceOnUse">
<stop offset="0.01"/>
<stop offset="0.08" stop-opacity="0.69"/>
<stop offset="0.21" stop-opacity="0.32"/>
<stop offset="1" stop-opacity="0"/>
</linearGradient>
<linearGradient id="paint4_linear_2_237" x1="314.013" y1="175.416" x2="338.055" y2="293.326" gradientUnits="userSpaceOnUse">
<stop offset="0.01"/>
<stop offset="0.08" stop-opacity="0.69"/>
<stop offset="0.21" stop-opacity="0.32"/>
<stop offset="1" stop-opacity="0"/>
</linearGradient>
<linearGradient id="paint5_linear_2_237" x1="315.052" y1="186.031" x2="242.254" y2="243.635" gradientUnits="userSpaceOnUse">
<stop offset="0.01"/>
<stop offset="0.08" stop-opacity="0.69"/>
<stop offset="0.21" stop-opacity="0.32"/>
<stop offset="1" stop-opacity="0"/>
</linearGradient>
<linearGradient id="paint6_linear_2_237" x1="364.099" y1="278.286" x2="360.066" y2="755.642" gradientUnits="userSpaceOnUse">
<stop offset="0.01"/>
<stop offset="0.08" stop-opacity="0.69"/>
<stop offset="0.21" stop-opacity="0.32"/>
<stop offset="1" stop-opacity="0"/>
</linearGradient>
<linearGradient id="paint7_linear_2_237" x1="347.217" y1="359.119" x2="152.722" y2="470.671" gradientUnits="userSpaceOnUse">
<stop offset="0.01"/>
<stop offset="0.08" stop-opacity="0.69"/>
<stop offset="0.21" stop-opacity="0.32"/>
<stop offset="1" stop-opacity="0"/>
</linearGradient>
<linearGradient id="paint8_linear_2_237" x1="353.735" y1="385.912" x2="12.7739" y2="581.449" gradientUnits="userSpaceOnUse">
<stop offset="0.01"/>
<stop offset="0.08" stop-opacity="0.69"/>
<stop offset="0.21" stop-opacity="0.32"/>
<stop offset="1" stop-opacity="0"/>
</linearGradient>
<linearGradient id="paint9_linear_2_237" x1="678.161" y1="195.637" x2="852.461" y2="604.849" gradientUnits="userSpaceOnUse">
<stop offset="0.01"/>
<stop offset="0.08" stop-opacity="0.69"/>
<stop offset="0.21" stop-opacity="0.32"/>
<stop offset="1" stop-opacity="0"/>
</linearGradient>
<linearGradient id="paint10_linear_2_237" x1="362.977" y1="296.878" x2="997.003" y2="741.378" gradientUnits="userSpaceOnUse">
<stop offset="0.01"/>
<stop offset="0.08" stop-opacity="0.69"/>
<stop offset="0.21" stop-opacity="0.32"/>
<stop offset="1" stop-opacity="0"/>
</linearGradient>
<linearGradient id="paint11_linear_2_237" x1="442.555" y1="612.97" x2="562.148" y2="-30.0852" gradientUnits="userSpaceOnUse">
<stop offset="0.01"/>
<stop offset="0.08" stop-opacity="0.69"/>
<stop offset="0.21" stop-opacity="0.32"/>
<stop offset="1" stop-opacity="0"/>
</linearGradient>
<linearGradient id="paint12_linear_2_237" x1="369.362" y1="173.225" x2="351.304" y2="967.474" gradientUnits="userSpaceOnUse">
<stop offset="0.01"/>
<stop offset="0.08" stop-opacity="0.69"/>
<stop offset="0.21" stop-opacity="0.32"/>
<stop offset="1" stop-opacity="0"/>
</linearGradient>
<linearGradient id="paint13_linear_2_237" x1="297.211" y1="508.203" x2="531.134" y2="762.427" gradientUnits="userSpaceOnUse">
<stop offset="0.01"/>
<stop offset="0.08" stop-opacity="0.69"/>
<stop offset="0.21" stop-opacity="0.32"/>
<stop offset="1" stop-opacity="0"/>
</linearGradient>
<linearGradient id="paint14_linear_2_237" x1="347.351" y1="565.902" x2="481.288" y2="753.398" gradientUnits="userSpaceOnUse">
<stop offset="0.01"/>
<stop offset="0.08" stop-opacity="0.69"/>
<stop offset="0.21" stop-opacity="0.32"/>
<stop offset="1" stop-opacity="0"/>
</linearGradient>
</defs>
</svg>
