<svg width="1251" height="853" viewBox="0 0 1251 853" fill="none" xmlns="http://www.w3.org/2000/svg">
<g filter="url(#filter0_d_2_315)">
<path d="M759.589 473.737C761.707 473.737 763.739 474.578 765.237 476.076C766.734 477.574 767.576 479.605 767.576 481.723V558.985H920.775C922.893 558.985 924.924 559.827 926.422 561.325C927.92 562.822 928.761 564.854 928.761 566.972C928.761 569.09 927.92 571.122 926.422 572.62C924.924 574.117 922.893 574.959 920.775 574.959H767.576V842.149H751.602V481.723C751.603 479.605 752.444 477.574 753.942 476.076C755.439 474.578 757.471 473.737 759.589 473.737V473.737Z" fill="#E6E6E6"/>
<path d="M333.254 840.335L304.456 841.13C300.081 841.355 295.753 840.142 292.133 837.676C289.006 835.349 287.571 832.204 288.2 829.046L293.867 800.566C294.935 795.193 301.519 791.131 309.521 790.91L325.425 790.471C333.427 790.25 340.225 793.942 341.588 799.248L348.818 827.372C349.621 830.491 348.362 833.71 345.367 836.206C341.889 838.868 337.635 840.318 333.254 840.335V840.335Z" fill="#3F3D56"/>
<path d="M508.425 839.521L479.626 840.316C475.251 840.541 470.924 839.328 467.303 836.862C464.176 834.535 462.741 831.39 463.37 828.232L469.037 799.752C470.105 794.379 476.69 790.317 484.691 790.096L500.595 789.657C508.597 789.436 515.395 793.129 516.758 798.434L523.989 826.558C524.791 829.677 523.532 832.896 520.538 835.392C517.059 838.054 512.805 839.504 508.425 839.521V839.521Z" fill="#3F3D56"/>
<path d="M233.254 597.736C231.938 597.169 230.855 596.17 230.185 594.904C229.514 593.638 229.296 592.181 229.566 590.774C229.836 589.367 230.578 588.094 231.67 587.167C232.762 586.239 234.138 585.712 235.57 585.672L562.977 576.632C563.802 576.609 564.624 576.749 565.395 577.043C566.167 577.338 566.872 577.782 567.472 578.349C568.072 578.917 568.554 579.597 568.892 580.35C569.229 581.104 569.414 581.917 569.437 582.742V582.743C569.481 584.41 568.862 586.026 567.716 587.237C566.57 588.448 564.991 589.155 563.325 589.203L563.324 589.202L235.917 598.243C235.003 598.271 234.094 598.098 233.254 597.736Z" fill="#3F3D56"/>
<path d="M354.084 489.349L260.496 491.933L269.221 807.911L362.809 805.327L354.084 489.349Z" fill="#E6E6E6"/>
<path d="M356.458 483.672L338.467 532.679L338.483 755.956L360.405 762.242L356.458 483.672Z" fill="#CCCCCC"/>
<path d="M306.802 406.771C289.293 407.268 275.934 437.569 276.255 449.394L276.846 470.8L340.245 469.05L339.654 447.643C339.322 435.819 324.311 406.302 306.802 406.771Z" fill="#3F3D56"/>
<path d="M261.71 622.787C258.438 622.874 255.266 621.659 252.889 619.41C250.512 617.161 249.125 614.061 249.031 610.79L248.069 575.952C247.978 572.68 249.191 569.505 251.441 567.128C253.691 564.75 256.794 563.363 260.066 563.273C263.339 563.183 266.513 564.396 268.891 566.646C271.268 568.896 272.655 571.998 272.745 575.271L273.707 610.108C273.794 613.38 272.579 616.552 270.33 618.928C268.081 621.305 264.981 622.693 261.71 622.787Z" fill="#3F3D56"/>
<path d="M285.459 492.682L285.016 469.658L291.054 469.509L291.497 492.458L296.97 826.949L290.931 827.116" fill="#3F3D56"/>
<path d="M364.815 546.522L256.286 549.519C245.92 536.878 244.978 483.022 266.612 472.773L275.095 458.367L340.503 455.174L348.147 470.342C358.908 479.499 364.457 533.018 364.815 546.522Z" fill="#E6E6E6"/>
<path d="M323.966 520.692L296.521 521.45C291.225 521.597 286.722 514.726 286.485 506.136C286.248 497.546 290.365 490.437 295.661 490.291L323.106 489.533C328.402 489.387 332.905 496.258 333.142 504.847C333.379 513.437 329.262 520.546 323.966 520.692Z" fill="#388CEF"/>
<path d="M270.819 676.062L214.246 716.024L204.362 806.128L270.359 784.078L270.819 676.062Z" fill="#E6E6E6"/>
<path d="M534.743 485.479L441.155 488.063L449.88 804.041L543.468 801.457L534.743 485.479Z" fill="#E6E6E6"/>
<path d="M443.396 484.727L462.653 533.251L468.431 756.454L446.679 763.307L443.396 484.727Z" fill="#CCCCCC"/>
<path d="M581.545 397.752C588.32 397.752 593.812 390.388 593.812 381.304C593.812 372.219 588.32 364.855 581.545 364.855C574.771 364.855 569.279 372.219 569.279 381.304C569.279 390.388 574.771 397.752 581.545 397.752Z" fill="#E6E6E6"/>
<path d="M485.634 402.952C468.126 403.449 454.767 433.75 455.088 445.574L455.679 466.981L519.078 465.23L518.487 443.824C518.155 432 503.144 402.482 485.634 402.952Z" fill="#3F3D56"/>
<path d="M503.762 499.889L503.319 476.865L509.357 476.714L509.8 499.665L515.273 834.156L509.234 834.323" fill="#3F3D56"/>
<path d="M543.648 542.703L435.118 545.7C433.226 534.262 435.674 480.887 445.444 468.953L453.928 454.548L519.335 451.355L526.98 466.522C546.291 468.096 553.046 520.546 543.648 542.703Z" fill="#E6E6E6"/>
<path d="M502.932 521.681L475.486 522.439C470.19 522.585 465.658 514.635 465.384 504.72C465.11 494.805 469.197 486.618 474.493 486.471L501.938 485.714C507.235 485.567 511.767 493.517 512.041 503.432C512.315 513.347 508.228 521.534 502.932 521.681Z" fill="#388CEF"/>
<path d="M539.367 652.964L594.059 695.465L599.818 785.928L534.899 760.887L539.367 652.964Z" fill="#E6E6E6"/>
<path d="M524.094 233.967C465.41 233.967 397.967 168.845 338.296 199.786C157.631 293.468 182.5 136.706 130.596 78.4048L132.3 74.987C171.594 224.872 207.147 463.709 339.081 195.811C372.13 128.702 480.598 232.433 544.445 229.373L544.556 233.481C537.813 233.806 530.992 233.968 524.094 233.967Z" fill="#F2F2F2"/>
<path d="M664.945 243.182C618.165 278.614 525.083 267.42 496.197 328.112C408.739 511.872 333.917 371.891 257.341 356.754L256.636 353C333.293 359.358 415.519 349.493 494.422 324.47C565.728 301.858 629.346 268.221 678.395 227.233L680.963 230.441C675.785 234.771 670.445 239.018 664.945 243.182Z" fill="#F2F2F2"/>
<path d="M156.074 235.115C162.848 235.115 168.34 227.75 168.34 218.666C168.34 209.581 162.848 202.217 156.074 202.217C149.299 202.217 143.807 209.581 143.807 218.666C143.807 227.75 149.299 235.115 156.074 235.115Z" fill="#E6E6E6"/>
<path d="M536.53 101.519C543.305 101.519 548.797 94.155 548.797 85.0706C548.797 75.9861 543.305 68.6217 536.53 68.6217C529.755 68.6217 524.263 75.9861 524.263 85.0706C524.263 94.155 529.755 101.519 536.53 101.519Z" fill="#E6E6E6"/>
<path d="M268.379 301.503C262.771 305.24 257.031 296.346 262.747 292.775C268.355 289.039 274.094 297.933 268.379 301.503Z" fill="#E6E6E6"/>
<path d="M476.032 9.62639C470.424 13.363 464.684 4.46955 470.4 0.898871C476.008 -2.83751 481.748 6.05592 476.032 9.62639Z" fill="#E6E6E6"/>
<path d="M598.415 182.678L594.847 181.896L595.628 178.326L593.25 177.805L592.467 181.374L588.899 180.593L588.378 182.972L591.946 183.754L591.165 187.322L593.543 187.844L594.326 184.274L597.894 185.057L598.415 182.678Z" fill="#E6E6E6"/>
<path d="M271.376 63.0794C279.959 63.0794 286.917 56.1214 286.917 47.5383C286.917 38.9552 279.959 31.9972 271.376 31.9972C262.793 31.9972 255.835 38.9552 255.835 47.5383C255.835 56.1214 262.793 63.0794 271.376 63.0794Z" fill="#FF6584"/>
<path d="M385.05 27.8669C367.541 28.3642 354.182 58.6652 354.503 70.4894L355.094 91.8961L418.493 90.1454L417.902 68.7388C417.57 56.9148 402.559 27.3972 385.05 27.8669Z" fill="#3F3D56"/>
<path d="M422.8 838.469L394.002 839.264C389.627 839.489 385.299 838.276 381.679 835.81C378.552 833.483 377.117 830.338 377.746 827.18L383.413 798.7C384.481 793.327 391.065 789.265 399.067 789.045L414.971 788.605C422.973 788.384 429.771 792.077 431.134 797.382L438.364 825.506C439.166 828.625 437.908 831.844 434.913 834.339C431.435 837.002 427.181 838.452 422.8 838.469V838.469Z" fill="#3F3D56"/>
<path d="M435.643 164.142L342.054 166.727L359.692 805.44L453.28 802.856L435.643 164.142Z" fill="#E6E6E6"/>
<path d="M398.195 473.318L397.752 450.294L403.79 450.145L404.233 473.094L409.706 807.585L403.666 807.752" fill="#3F3D56"/>
<path d="M454.068 222.598L327.261 226.1C325.05 212.735 327.91 150.372 339.325 136.428L342.454 119.784L430.012 117.366L434.593 133.588C447.166 144.287 453.65 206.82 454.068 222.598Z" fill="#E6E6E6"/>
<path d="M432.779 119.33L342.425 121.825C339.09 121.917 336.336 120.166 336.274 117.914C336.265 117.589 336.313 117.266 336.414 116.958L350.449 73.7204C351.05 71.869 353.442 70.5092 356.234 70.4321L416.155 68.7776C418.947 68.7005 421.411 69.9261 422.113 71.7416L438.513 114.138C439.351 116.307 437.414 118.563 434.186 119.178C433.722 119.266 433.252 119.317 432.779 119.33V119.33Z" fill="#E6E6E6"/>
<path d="M351.338 470.381C350.522 470.032 349.751 469.585 349.042 469.052C348.026 468.339 347.186 467.403 346.587 466.315C345.988 465.227 345.646 464.017 345.587 462.777L342.304 343.881C342.169 338.959 346.988 334.818 353.047 334.651L433.935 332.417C439.994 332.248 445.033 336.118 445.17 341.04L448.453 459.937C448.462 461.178 448.188 462.406 447.65 463.525C447.112 464.644 446.325 465.625 445.35 466.393C443.189 468.153 440.496 469.13 437.71 469.166L356.823 471.399C354.942 471.462 353.071 471.115 351.338 470.381V470.381Z" fill="#3F3D56"/>
<path d="M403.11 111.678L375.664 112.436C370.368 112.582 365.89 106.599 365.683 99.0994C365.476 91.6002 369.617 85.3786 374.913 85.2323L402.358 84.4744C407.655 84.3282 412.133 90.3118 412.34 97.811C412.547 105.31 408.406 111.532 403.11 111.678Z" fill="#388CEF"/>
<path d="M1051.85 816.86H1019.91V584.699C1046.63 582.782 1066.71 574.599 1066.71 564.794C1066.71 553.566 1040.38 544.464 1007.9 544.464C975.421 544.464 949.091 553.566 949.091 564.794C949.091 574.694 969.566 582.937 996.673 584.749V816.86H964.726C961.645 816.86 958.691 818.084 956.512 820.262C954.333 822.441 953.109 825.396 953.109 828.477C953.109 831.558 954.333 834.513 956.512 836.691C958.691 838.87 961.645 840.094 964.726 840.094H1051.85C1054.93 840.094 1057.89 838.87 1060.07 836.691C1062.25 834.513 1063.47 831.558 1063.47 828.477C1063.47 825.396 1062.25 822.441 1060.07 820.262C1057.89 818.084 1054.93 816.86 1051.85 816.86Z" fill="#E6E6E6"/>
<path d="M987.726 698.998L977.232 710.433L928.13 675.4L943.616 658.522L987.726 698.998Z" fill="#A0616A"/>
<path d="M960.893 729.181C960.996 731.738 961.606 734.249 962.686 736.569C963.767 738.889 965.297 740.972 967.189 742.696L967.651 743.126L981.413 728.128L1001.48 706.253L986.667 692.652L983.992 695.574L983.712 695.875L970.38 702.182L967.554 703.525L967.071 703.75L966.007 715.171V715.181C964.268 717.059 962.921 719.264 962.043 721.667C961.165 724.07 960.774 726.625 960.893 729.181V729.181Z" fill="#2F2E41"/>
<path d="M1042.09 813.078L1027.24 817.59L1002.77 762.456L1024.69 755.798L1042.09 813.078Z" fill="#A0616A"/>
<path d="M1002.18 840.26L1002.36 840.872L1050.25 826.325L1044.4 807.083L1040.62 808.233L1040.22 808.351L1022.42 806.718L1021.9 806.675L1015.16 815.968C1010.22 817.469 1006.07 820.871 1003.64 825.427C1001.21 829.982 1000.68 835.318 1002.18 840.26H1002.18Z" fill="#2F2E41"/>
<path d="M919.636 524.402C919.636 524.402 824.821 615.947 884.761 644.283H903.288C907.315 631.193 913.505 618.87 921.601 607.824C923.351 605.533 929.908 605.998 931.729 603.766C942.848 590.135 954.903 578.429 963.228 578.894L961.236 642.145L958.013 664.707C956.321 676.371 1004.08 778.207 1004.08 778.207L1034.11 766.408C1034.11 766.408 1002.83 682.531 1002.46 670.438L1027.53 537.48L919.636 524.402Z" fill="#2F2E41"/>
<path d="M911.729 528.917C912.213 529.607 912.844 530.179 913.577 530.593C914.785 531.276 916.095 531.762 917.456 532.033C938.803 536.878 1008.54 546.924 1026.64 542.132C1028.87 541.552 1030.32 540.735 1030.79 539.661C1032.31 536.266 1032.11 521.923 1031.22 504.604C1031.06 501.359 1027.48 497.846 1027.27 494.451C1027.12 491.905 1030.33 489.509 1030.16 486.92C1028.98 469.408 1027.45 451.562 1026.43 440.281C1025.78 433.029 1025.34 428.495 1025.34 428.495L1036.36 359.059L1035.84 358.21L1035.26 357.92L999.753 340.343L997.819 335.401C997.259 333.978 996.284 332.756 995.022 331.892C993.76 331.028 992.268 330.563 990.739 330.555L967.35 330.459C966.136 330.452 964.939 330.735 963.857 331.285C962.775 331.834 961.84 332.634 961.129 333.617L954.79 342.395L912.89 369.254L913.051 369.749L932.712 429.58L932.809 434.243V434.254L933.539 471.75L931.509 476.831L933.797 485.169C933.797 485.169 932.744 494.913 927.104 502.154C921.99 508.73 915.479 515.584 912.535 521.149V521.16C910.902 524.233 910.354 526.897 911.729 528.917Z" fill="#388CEF"/>
<path d="M880.209 638.845L885.277 645.249C885.277 645.249 931.887 677.858 933.487 680.905L940.853 687.875L958.677 668.823L949.408 657.205C941.99 647.908 932.407 640.571 921.496 635.837V635.837L907.291 623.234L880.209 638.845Z" fill="#2F2E41"/>
<path d="M1048.1 550.545L1039.61 468.387L1037.37 434.574L1061.13 430.278C1061.13 430.278 1060.19 454.456 1063.3 468.097C1066.37 481.558 1063.71 548.741 1063.52 550.537C1065.26 552.098 1066.49 554.151 1067.05 556.425C1067.6 558.699 1067.45 561.088 1066.61 563.275C1065.78 565.462 1064.3 567.343 1062.37 568.671C1060.45 569.999 1058.16 570.711 1055.82 570.712C1053.48 570.713 1051.19 570.004 1049.27 568.678C1047.34 567.351 1045.86 565.471 1045.02 563.285C1044.18 561.099 1044.03 558.711 1044.58 556.436C1045.13 554.161 1046.36 552.107 1048.1 550.545V550.545Z" fill="#A0616A"/>
<path d="M1019.81 426.121L1026.43 440.281L1028.74 445.213L1034.96 477.788L1038.06 481.086L1040.74 491.733L1042 491.475L1064.67 486.78L1071.27 485.416C1072.76 482.934 1073.35 480.015 1072.93 477.151C1072.52 474.287 1071.13 471.654 1069 469.698C1068.54 469.289 1068.17 468.892 1068.18 468.516C1068.56 445.857 1067.17 404.483 1054.65 387.454C1050.68 382.05 1048.29 376.668 1044.82 372.907C1044.81 372.897 1044.81 372.886 1044.8 372.886L1036.36 359.059L1035.84 358.21L1035.26 357.92L1019.81 426.121Z" fill="#388CEF"/>
<path d="M980.873 324.639C998.06 324.639 1011.99 310.706 1011.99 293.519C1011.99 276.332 998.06 262.399 980.873 262.399C963.686 262.399 949.753 276.332 949.753 293.519C949.753 310.706 963.686 324.639 980.873 324.639Z" fill="#A0616A"/>
<path d="M1017.83 286.823C1018.74 281.593 1019.45 274.814 1016.84 268.787C1014.63 263.715 1009.11 258.96 1002.98 259.601C1003.27 258.456 1003.24 257.253 1002.88 256.125C1002.53 254.998 1001.87 253.99 1000.98 253.213C998.985 251.645 996.658 250.55 994.175 250.013C988.409 248.318 982.436 246.561 976.268 246.528C969.347 246.49 963.213 248.862 959.453 253.042L959.361 253.178L958.233 255.869C958.082 256.23 957.855 256.555 957.567 256.82C957.279 257.085 956.937 257.284 956.565 257.405C956.192 257.528 955.796 257.567 955.406 257.519C955.016 257.471 954.642 257.338 954.309 257.128C953.944 256.904 953.527 256.779 953.099 256.765C952.671 256.751 952.247 256.849 951.869 257.049C951.49 257.25 951.171 257.545 950.941 257.907C950.712 258.269 950.581 258.684 950.561 259.112L950.501 260.26L948.887 259.617C948.482 259.453 948.04 259.4 947.608 259.464C947.176 259.528 946.769 259.706 946.429 259.98C946.089 260.254 945.828 260.614 945.673 261.022C945.518 261.431 945.475 261.873 945.549 262.304L945.764 263.67C945.417 263.607 945.06 263.615 944.716 263.692C944.372 263.77 944.047 263.916 943.76 264.122C943.35 264.423 943.046 264.848 942.892 265.333C942.738 265.818 942.742 266.34 942.904 266.823C944.157 270.397 946.298 273.595 949.125 276.116C950.394 277.263 951.815 278.229 953.348 278.987C953.667 279.148 953.999 279.3 954.343 279.444C966.745 284.761 980.014 287.767 993.497 288.313C992.222 290.745 991.398 293.388 991.065 296.114C990.881 297.661 991.124 299.229 991.767 300.647C992.411 302.066 993.431 303.281 994.716 304.161C995.273 304.48 995.859 304.748 996.464 304.962C997.043 305.176 997.604 305.435 998.141 305.738C998.928 306.214 999.576 306.89 1000.02 307.697C1000.46 308.504 1000.68 309.413 1000.66 310.333C1000.64 311.253 1000.37 312.151 999.894 312.936C999.414 313.721 998.735 314.365 997.925 314.804C997.925 314.804 1000.24 317.631 1000.61 317.583C1002.09 317.248 1003.42 316.46 1004.42 315.328C1011.16 308.784 1015.67 299.199 1017.83 286.823Z" fill="#2F2E41"/>
<path d="M1154.07 767.872L1155.42 737.46C1169.52 729.923 1185.25 725.942 1201.23 725.862C1179.23 743.852 1181.98 778.53 1167.06 802.722C1162.35 810.231 1156.01 816.584 1148.51 821.311C1141.01 826.037 1132.54 829.015 1123.74 830.024L1105.32 841.298C1102.8 827.212 1103.35 812.746 1106.96 798.897C1110.56 785.047 1117.12 772.143 1126.19 761.074C1131.34 754.914 1137.25 749.428 1143.77 744.744C1148.18 756.372 1154.07 767.872 1154.07 767.872Z" fill="#F2F2F2"/>
<path d="M1246.65 842.745C1246.65 843.041 1246.6 843.335 1246.48 843.609C1246.37 843.883 1246.2 844.132 1245.99 844.341C1245.79 844.551 1245.54 844.717 1245.26 844.83C1244.99 844.943 1244.69 845.001 1244.4 845H7.11668C6.51849 845 5.9448 844.762 5.52181 844.339C5.09883 843.916 4.86121 843.343 4.86121 842.745C4.86121 842.146 5.09883 841.573 5.52181 841.15C5.9448 840.727 6.51849 840.489 7.11668 840.489H1244.4C1244.69 840.488 1244.99 840.546 1245.26 840.659C1245.54 840.772 1245.79 840.938 1245.99 841.148C1246.2 841.357 1246.37 841.606 1246.48 841.88C1246.6 842.154 1246.65 842.448 1246.65 842.745V842.745Z" fill="#CCCCCC"/>
<path d="M537.061 615.07C533.79 615.156 530.618 613.942 528.241 611.692C525.864 609.443 524.476 606.343 524.382 603.072L523.42 568.234C523.334 564.965 524.549 561.794 526.799 559.42C529.048 557.046 532.149 555.661 535.418 555.571C538.688 555.481 541.86 556.692 544.237 558.939C546.614 561.185 548.002 564.284 548.097 567.553L549.059 602.391C549.145 605.662 547.931 608.834 545.682 611.211C543.432 613.588 540.332 614.976 537.061 615.07V615.07Z" fill="#3F3D56"/>
<path d="M1081.4 742.395C1062.65 742.395 1042.1 741.686 1019.75 740.269C904.138 732.928 754.389 707.403 598.085 668.4C441.782 629.397 297.597 581.572 192.093 533.739C140.698 510.437 101.254 488.38 74.8551 468.179C46.906 446.794 34.6807 428.153 38.5173 412.776C45.9928 382.821 112.185 376.267 166.397 376.044L166.415 380.401C91.9679 380.706 48.0476 392.579 42.7447 413.831C35.9896 440.899 91.0809 483.157 193.892 529.771C299.164 577.499 443.084 625.232 599.14 664.174C755.196 703.115 904.669 728.595 1020.02 735.921C1132.68 743.077 1201.17 731.655 1207.92 704.587C1213.53 682.113 1176.56 649.006 1103.82 611.363L1105.82 607.495C1158.67 634.847 1220.02 674.077 1212.15 705.642C1208.31 721.018 1188.76 731.729 1154.04 737.477C1134.25 740.753 1109.94 742.395 1081.4 742.395Z" fill="#CCCCCC"/>
<path d="M86.265 713.856C71.3865 713.856 61.7137 710.159 57.4325 702.809C48.9898 688.316 63.1296 662.886 99.4582 627.225L102.51 630.334C68.7644 663.46 54.0922 688.42 61.1961 700.617C65.6914 708.331 79.0696 711.097 99.8929 708.609C120.564 706.142 147.959 698.786 181.316 686.748C249.988 661.964 336.145 620.159 423.915 569.032C511.682 517.908 590.546 463.585 645.983 416.073C656.631 406.946 666.294 398.165 674.705 389.977C685.746 379.49 695.931 368.138 705.164 356.03C717.599 339.146 721.796 326.144 717.301 318.428C709.794 305.541 678.257 306.753 628.495 321.845L627.231 317.676C680.62 301.486 712.191 301 721.065 316.235C726.58 325.701 722.41 339.959 708.673 358.614C699.298 370.914 688.956 382.445 677.744 393.098C669.268 401.351 659.536 410.193 648.818 419.381C593.188 467.059 514.095 521.543 426.107 572.796C338.118 624.051 251.707 665.976 182.795 690.846C149.128 702.996 121.409 710.429 100.409 712.934C95.7167 713.52 90.9938 713.828 86.265 713.856V713.856Z" fill="#CCCCCC"/>
<path d="M881.365 534.995C870.598 534.78 812.767 533.12 803.283 533.529C802.747 531.651 784.769 554.69 784.332 554.833C784.04 555.14 783.828 555.514 783.712 555.921C783.596 556.329 783.581 556.758 783.667 557.173C783.753 557.588 783.939 557.976 784.207 558.303C784.476 558.631 784.82 558.889 785.21 559.055C786.267 559.697 879.499 557.972 880.628 558.197C881.117 558.189 881.593 558.044 882.003 557.777C882.412 557.51 882.738 557.133 882.943 556.689L883.566 555.294C883.63 552.906 884.412 540.703 883.71 538.616C883.883 538.225 883.955 537.796 883.921 537.37C883.886 536.943 883.747 536.532 883.514 536.173C883.281 535.814 882.963 535.518 882.588 535.313C882.213 535.107 881.792 534.998 881.365 534.995V534.995Z" fill="#E6E6E6"/>
<path opacity="0.17" d="M883.566 555.291C883.019 556.606 882.319 558.258 880.628 558.198L786.194 559.257C785.748 559.252 785.31 559.133 784.923 558.909C784.536 558.686 784.213 558.368 783.984 557.984C783.756 557.6 783.631 557.164 783.619 556.717C783.608 556.27 783.712 555.829 783.921 555.434L883.566 555.291Z" fill="black"/>
<path d="M803.725 533.246C802.708 531.488 777.461 406.565 775.354 405.521L758.117 384.434L756.576 383.276C754.434 382.099 749.295 382.895 749.758 386.167C753.807 405.582 779.854 516.159 780.425 533.398L783.56 555.36C783.616 555.734 783.75 556.092 783.952 556.411C784.155 556.73 784.422 557.003 784.737 557.212C785.051 557.421 785.406 557.562 785.779 557.626C786.151 557.69 786.533 557.675 786.899 557.582C787.798 557.485 788.656 557.156 789.389 556.626C790.121 556.097 790.704 555.386 791.078 554.563C791.313 553.788 804.905 533.696 803.725 533.246Z" fill="#E6E6E6"/>
<path opacity="0.17" d="M758.113 384.435L791.081 554.567C789.979 557.358 784.82 559.313 783.618 555.652C783.597 555.647 749.796 386.271 749.762 386.17C749.402 382.094 756.137 381.965 758.113 384.435Z" fill="black"/>
<path d="M759.107 391.392L775.85 414.73L794.643 503.985L785.907 511.606L759.107 391.392Z" fill="#388CEF"/>
<path d="M870.557 547.029L875.189 547.218C875.261 545.862 875.485 544.517 875.857 543.21C876.554 539.9 877.178 535.964 874.289 535.979C872.328 535.79 871.66 538.273 871.312 540.974C871.222 543.01 870.969 545.034 870.557 547.029Z" fill="#2F2E41"/>
<path d="M843.983 540.8L847.105 540.916L848.615 540.974C848.586 539.319 849.356 535.906 847.483 535.064C847.185 534.936 846.863 534.872 846.539 534.875C844.782 534.774 844.259 536.11 844.099 537.649C843.998 538.578 844.041 539.566 844.012 540.335C844.012 540.495 843.998 540.655 843.983 540.8Z" fill="#2F2E41"/>
<path d="M834.733 540.422L837.869 540.553L839.365 540.611C839.336 538.709 840.338 534.556 837.289 534.498C834.471 534.338 834.834 537.925 834.762 539.958C834.762 540.117 834.747 540.277 834.733 540.422Z" fill="#2F2E41"/>
<path d="M825.483 540.059L828.605 540.175L830.115 540.234C830.086 538.346 831.088 534.193 828.039 534.135C825.221 533.96 825.584 537.547 825.512 539.595C825.512 539.754 825.497 539.914 825.483 540.059Z" fill="#2F2E41"/>
<path d="M816.233 539.682L819.369 539.812L820.865 539.871C820.836 537.968 821.838 533.83 818.788 533.757C815.971 533.597 816.334 537.184 816.262 539.217C816.262 539.377 816.247 539.537 816.233 539.682Z" fill="#2F2E41"/>
<path d="M806.983 539.319L810.105 539.435L811.615 539.493C811.586 537.75 812.428 534.106 810.192 533.481H810.178C809.97 533.42 809.755 533.39 809.539 533.394C809.275 533.371 809.009 533.395 808.754 533.467H808.74C806.794 533.975 807.07 537.024 807.012 538.854C807.012 539.014 806.997 539.174 806.983 539.319Z" fill="#2F2E41"/>
<path d="M861.22 538.331L865.852 538.52C865.852 538.346 865.852 538.157 865.867 537.939C865.981 536.834 866.001 535.722 865.925 534.614C865.765 533.394 865.242 532.436 863.775 532.407C862.28 532.319 861.684 533.278 861.452 534.512C861.398 534.722 861.359 534.936 861.336 535.151V535.166C861.22 536.298 861.292 537.518 861.22 538.331Z" fill="#2F2E41"/>
<path d="M851.97 537.954L856.602 538.142C856.7 536.896 856.729 535.645 856.689 534.396C856.558 533.118 856.05 532.073 854.525 532.044C852.986 531.942 852.391 532.987 852.158 534.28C851.941 535.529 852.057 537.024 851.97 537.954Z" fill="#2F2E41"/>
<path d="M842.719 537.591L844.099 537.649L847.352 537.779C847.337 537.082 847.468 536.066 847.482 535.064C847.495 534.764 847.485 534.463 847.453 534.164C847.337 532.813 846.858 531.695 845.275 531.666C843.663 531.579 843.097 532.697 842.894 534.062C842.69 535.282 842.807 536.69 842.719 537.591Z" fill="#2F2E41"/>
<path d="M861.307 546.666L865.939 546.841C865.924 544.953 866.912 540.8 863.862 540.742C860.813 540.553 861.481 544.764 861.307 546.666Z" fill="#2F2E41"/>
<path d="M852.057 546.289L856.689 546.478C856.675 544.575 857.662 540.422 854.613 540.364C851.563 540.19 852.231 544.401 852.057 546.289Z" fill="#2F2E41"/>
<path d="M842.807 545.926L847.439 546.1C847.424 544.75 847.933 542.252 847.105 540.916C846.924 540.62 846.667 540.379 846.36 540.218C846.053 540.057 845.708 539.982 845.362 540.001C844.887 539.951 844.409 540.069 844.012 540.335C842.531 541.308 842.952 544.387 842.807 545.926Z" fill="#2F2E41"/>
<path d="M833.557 545.548L838.189 545.737C838.174 544.387 838.668 541.904 837.869 540.553C837.689 540.253 837.43 540.007 837.12 539.844C836.811 539.68 836.462 539.604 836.112 539.624C835.637 539.571 835.158 539.69 834.762 539.958C833.281 540.96 833.702 544.024 833.557 545.548Z" fill="#2F2E41"/>
<path d="M824.306 545.185L828.939 545.359C828.924 544.009 829.432 541.511 828.605 540.175C828.424 539.88 828.167 539.638 827.86 539.477C827.553 539.316 827.208 539.241 826.862 539.261C826.387 539.21 825.909 539.329 825.512 539.595C824.031 540.568 824.452 543.646 824.306 545.185Z" fill="#2F2E41"/>
<path d="M815.057 544.808L819.689 544.996C819.675 543.646 820.168 541.163 819.369 539.812C819.19 539.511 818.932 539.265 818.622 539.101C818.312 538.937 817.962 538.861 817.612 538.883C817.137 538.831 816.658 538.949 816.262 539.217C814.781 540.219 815.202 543.283 815.057 544.808Z" fill="#2F2E41"/>
<path d="M805.807 544.445L810.439 544.619C810.424 543.268 810.918 540.785 810.105 539.435C809.926 539.138 809.668 538.895 809.361 538.734C809.054 538.573 808.708 538.499 808.362 538.52C807.887 538.47 807.409 538.588 807.012 538.854C805.531 539.841 805.952 542.905 805.807 544.445Z" fill="#2F2E41"/>
<path d="M858.121 531.021L893.426 456.352L906.775 425.205L885.795 413.259C885.795 413.259 878.649 436.375 871.181 448.207C863.811 459.883 844 524.134 843.582 525.891C841.418 526.783 839.575 528.311 838.298 530.272C837.022 532.234 836.37 534.537 836.431 536.877C836.491 539.216 837.261 541.483 838.637 543.376C840.014 545.269 841.932 546.699 844.14 547.478C846.347 548.257 848.738 548.347 850.998 547.737C853.258 547.127 855.279 545.845 856.794 544.062C858.31 542.278 859.248 540.076 859.485 537.748C859.722 535.419 859.246 533.074 858.121 531.021H858.121Z" fill="#A0616A"/>
<path d="M857.906 461.889L884.607 477.997L890.662 468.845L894.695 466.765L911.387 438.104L926.144 423.069L945.642 360.745L920.273 364.551L920.24 364.562C915.72 366.959 911.678 371.244 906.136 375.021C888.672 386.922 873.615 425.485 866.441 446.986C866.324 447.339 865.84 447.585 865.279 447.826C862.619 448.963 860.433 450.983 859.089 453.545C857.746 456.107 857.328 459.054 857.906 461.889L857.906 461.889Z" fill="#388CEF"/>
</g>
<defs>
<filter id="filter0_d_2_315" x="0.861206" y="0" width="1249.79" height="853" filterUnits="userSpaceOnUse" color-interpolation-filters="sRGB">
<feFlood flood-opacity="0" result="BackgroundImageFix"/>
<feColorMatrix in="SourceAlpha" type="matrix" values="0 0 0 0 0 0 0 0 0 0 0 0 0 0 0 0 0 0 127 0" result="hardAlpha"/>
<feOffset dy="4"/>
<feGaussianBlur stdDeviation="2"/>
<feComposite in2="hardAlpha" operator="out"/>
<feColorMatrix type="matrix" values="0 0 0 0 0 0 0 0 0 0 0 0 0 0 0 0 0 0 0.25 0"/>
<feBlend mode="normal" in2="BackgroundImageFix" result="effect1_dropShadow_2_315"/>
<feBlend mode="normal" in="SourceGraphic" in2="effect1_dropShadow_2_315" result="shape"/>
</filter>
</defs>
</svg>
