<svg width="1387" height="700" viewBox="0 0 1387 700" fill="none" xmlns="http://www.w3.org/2000/svg">
<g filter="url(#filter0_d_2_104)">
<path d="M1378 37.7901H9.58777C6.82634 37.7901 4.58777 40.0286 4.58777 42.7901V686.871C4.58777 689.632 6.82634 691.871 9.58777 691.871H1378C1380.76 691.871 1383 689.632 1383 686.871V42.7901C1383 40.0287 1380.76 37.7901 1378 37.7901Z" fill="#E6E6E6"/>
<path d="M1338.59 93.8786H49.0038C46.2424 93.8786 44.0038 96.1172 44.0038 98.8786V634.598C44.0038 637.36 46.2423 639.598 49.0037 639.598H1338.59C1341.35 639.598 1343.59 637.36 1343.59 634.598V98.8786C1343.59 96.1172 1341.35 93.8786 1338.59 93.8786Z" fill="white"/>
<path d="M1377.41 0H9C6.23858 0 4 2.23857 4 5V53.559C4 56.3205 6.23857 58.559 9 58.559H1377.41C1380.17 58.559 1382.41 56.3205 1382.41 53.559V5C1382.41 2.23858 1380.17 0 1377.41 0Z" fill="#388CEF"/>
<path d="M47.5166 45.2878C53.5109 45.2878 58.3703 40.4284 58.3703 34.4341C58.3703 28.4397 53.5109 23.5804 47.5166 23.5804C41.5223 23.5804 36.6629 28.4397 36.6629 34.4341C36.6629 40.4284 41.5223 45.2878 47.5166 45.2878Z" fill="white"/>
<path d="M88.7139 45.2878C94.7083 45.2878 99.5676 40.4284 99.5676 34.4341C99.5676 28.4397 94.7083 23.5804 88.7139 23.5804C82.7196 23.5804 77.8602 28.4397 77.8602 34.4341C77.8602 40.4284 82.7196 45.2878 88.7139 45.2878Z" fill="white"/>
<path d="M129.913 45.2878C135.907 45.2878 140.766 40.4284 140.766 34.4341C140.766 28.4397 135.907 23.5804 129.913 23.5804C123.918 23.5804 119.059 28.4397 119.059 34.4341C119.059 40.4284 123.918 45.2878 129.913 45.2878Z" fill="white"/>
<path d="M1279.79 529.073C1279.79 529.073 1279.79 529.073 1279.79 529.073H635.425C634.89 529.073 634.377 528.86 633.999 528.482C633.621 528.104 633.409 527.591 633.409 527.056V218.211C633.409 217.676 633.621 217.163 633.999 216.785C634.377 216.407 634.89 216.195 635.425 216.195C635.96 216.195 636.473 216.407 636.851 216.785C637.229 217.163 637.442 217.676 637.442 218.211V520.04C637.442 522.801 639.68 525.04 642.442 525.04H1279.79C1280.33 525.04 1280.84 525.252 1281.22 525.63C1281.6 526.009 1281.81 526.522 1281.81 527.056C1281.81 527.591 1281.6 528.104 1281.22 528.482C1280.84 528.86 1280.33 529.073 1279.79 529.073C1279.79 529.073 1279.79 529.073 1279.79 529.073V529.073Z" fill="#3F3D56"/>
<path d="M-nan -nanL773.099 506.891H714.491C712.904 506.889 711.383 506.258 710.26 505.135C709.138 504.013 708.507 502.492 708.505 500.905V420.114C708.507 418.527 709.138 417.005 710.26 415.883C711.383 414.761 712.904 414.13 714.491 414.128H773.099C774.686 414.13 776.207 414.761 777.33 415.883C778.452 417.005 779.083 418.527 779.085 420.114V500.905C779.083 502.492 778.452 504.013 777.33 505.135C776.207 506.258 774.686 506.889 773.099 506.891L-nan -nanL-nan -nanZ" fill="#388CEF"/>
<path d="M-nan -nanL879.977 506.891H821.369C819.782 506.889 818.261 506.258 817.139 505.135C816.016 504.013 815.385 502.492 815.383 500.905V343.484C815.385 341.897 816.016 340.375 817.139 339.253C818.261 338.131 819.782 337.5 821.369 337.498H879.977C881.564 337.5 883.086 338.131 884.208 339.253C885.33 340.375 885.962 341.897 885.963 343.484V500.905C885.962 502.492 885.33 504.013 884.208 505.135C883.086 506.258 881.564 506.889 879.977 506.891L-nan -nanL-nan -nanZ" fill="#388CEF"/>
<path d="M-nan -nanL986.855 506.891H928.248C926.661 506.889 925.139 506.258 924.017 505.135C922.895 504.013 922.263 502.492 922.261 500.905V420.114C922.263 418.527 922.895 417.005 924.017 415.883C925.139 414.761 926.661 414.13 928.248 414.128H986.855C988.442 414.13 989.964 414.761 991.086 415.883C992.208 417.005 992.84 418.527 992.842 420.114V500.905C992.84 502.492 992.208 504.013 991.086 505.135C989.964 506.258 988.442 506.889 986.855 506.891L-nan -nanL-nan -nanZ" fill="#388CEF"/>
<path d="M-nan -nanL1093.73 506.891H1035.13C1033.58 506.924 1032.07 506.341 1030.95 505.27C1029.83 504.199 1029.18 502.727 1029.14 501.176V312.964C1029.18 311.413 1029.83 309.941 1030.95 308.87C1032.07 307.799 1033.58 307.216 1035.13 307.25H1093.73C1095.29 307.216 1096.79 307.799 1097.91 308.87C1099.03 309.941 1099.68 311.413 1099.72 312.964V501.176C1099.68 502.727 1099.03 504.199 1097.91 505.27C1096.79 506.341 1095.29 506.924 1093.73 506.891L-nan -nanL-nan -nanZ" fill="#388CEF"/>
<path d="M-nan -nanL1200.61 506.891H1142C1140.42 506.889 1138.9 506.258 1137.77 505.135C1136.65 504.013 1136.02 502.492 1136.02 500.905V258.788C1136.02 257.201 1136.65 255.679 1137.77 254.557C1138.9 253.435 1140.42 252.804 1142 252.802H1200.61C1202.2 252.804 1203.72 253.435 1204.84 254.557C1205.97 255.679 1206.6 257.201 1206.6 258.788V500.905C1206.6 502.492 1205.97 504.013 1204.84 505.135C1203.72 506.258 1202.2 506.889 1200.61 506.891L-nan -nanL-nan -nanZ" fill="#388CEF"/>
<path d="M743.795 389.929C750.477 389.929 755.894 384.512 755.894 377.83C755.894 371.147 750.477 365.73 743.795 365.73C737.112 365.73 731.695 371.147 731.695 377.83C731.695 384.512 737.112 389.929 743.795 389.929Z" fill="#3F3D56"/>
<path d="M850.673 311.283C857.355 311.283 862.773 305.866 862.773 299.183C862.773 292.501 857.355 287.084 850.673 287.084C843.991 287.084 838.574 292.501 838.574 299.183C838.574 305.866 843.991 311.283 850.673 311.283Z" fill="#3F3D56"/>
<path d="M957.552 389.929C964.234 389.929 969.651 384.512 969.651 377.83C969.651 371.147 964.234 365.73 957.552 365.73C950.869 365.73 945.452 371.147 945.452 377.83C945.452 384.512 950.869 389.929 957.552 389.929Z" fill="#3F3D56"/>
<path d="M1064.43 272.968C1071.11 272.968 1076.53 267.551 1076.53 260.868C1076.53 254.186 1071.11 248.769 1064.43 248.769C1057.75 248.769 1052.33 254.186 1052.33 260.868C1052.33 267.551 1057.75 272.968 1064.43 272.968Z" fill="#3F3D56"/>
<path d="M1171.31 228.603C1177.99 228.603 1183.41 223.186 1183.41 216.504C1183.41 209.821 1177.99 204.404 1171.31 204.404C1164.63 204.404 1159.21 209.821 1159.21 216.504C1159.21 223.186 1164.63 228.603 1171.31 228.603Z" fill="#3F3D56"/>
<path d="M960.865 377.193C959.13 379.092 956.236 379.364 954.177 377.822L853.671 302.541C851.894 301.21 849.453 301.21 847.676 302.541L746.617 378.235C745.726 378.903 744.461 378.721 743.794 377.83V377.83C743.126 376.938 743.308 375.674 744.199 375.006L847.676 297.501C849.453 296.17 851.894 296.17 853.671 297.501L953.666 372.401C955.725 373.943 958.619 373.671 960.355 371.772L1062.94 259.51C1063.15 259.287 1063.4 259.112 1063.68 258.997V258.997L1168.68 216.688C1169.72 216.271 1170.89 216.771 1171.31 217.805V217.805C1171.73 218.838 1171.23 220.013 1170.19 220.43L1066.66 262.14C1065.97 262.42 1065.35 262.853 1064.84 263.405L960.865 377.193Z" fill="#3F3D56"/>
<path d="M368.938 160.58H195.908C193.147 160.58 190.908 162.819 190.908 165.58V169.337C190.908 172.099 193.147 174.337 195.908 174.337H368.938C371.699 174.337 373.938 172.099 373.938 169.337V165.58C373.938 162.819 371.699 160.58 368.938 160.58Z" fill="#E6E6E6"/>
<path d="M468.546 200.966H195.908C193.147 200.966 190.908 203.205 190.908 205.966V209.723C190.908 212.484 193.147 214.723 195.908 214.723H468.546C471.308 214.723 473.546 212.484 473.546 209.723V205.966C473.546 203.205 471.308 200.966 468.546 200.966Z" fill="#388CEF"/>
<path d="M419.191 239.428H198.847C196.085 239.428 193.847 241.667 193.847 244.428V248.185C193.847 250.947 196.085 253.185 198.847 253.185H419.191C421.952 253.185 424.191 250.947 424.191 248.185V244.428C424.191 241.667 421.952 239.428 419.191 239.428Z" fill="#E6E6E6"/>
<path d="M320.379 281.63H195.908C193.147 281.63 190.908 283.869 190.908 286.63V290.387C190.908 293.148 193.147 295.387 195.908 295.387H320.379C323.14 295.387 325.379 293.148 325.379 290.387V286.63C325.379 283.869 323.14 281.63 320.379 281.63Z" fill="#E6E6E6"/>
<path d="M388.86 322.852H195.908C193.147 322.852 190.908 325.091 190.908 327.852V331.609C190.908 334.371 193.147 336.609 195.908 336.609H388.86C391.621 336.609 393.86 334.371 393.86 331.609V327.852C393.86 325.091 391.621 322.852 388.86 322.852Z" fill="#388CEF"/>
<path d="M124.898 156.253H112.487C109.725 156.253 107.487 158.491 107.487 161.253V173.665C107.487 176.426 109.725 178.665 112.487 178.665H124.898C127.66 178.665 129.898 176.426 129.898 173.665V161.253C129.898 158.491 127.66 156.253 124.898 156.253Z" fill="#E6E6E6"/>
<path d="M124.898 196.639H112.487C109.725 196.639 107.487 198.877 107.487 201.639V214.051C107.487 216.812 109.725 219.051 112.487 219.051H124.898C127.66 219.051 129.898 216.812 129.898 214.051V201.639C129.898 198.877 127.66 196.639 124.898 196.639Z" fill="#388CEF"/>
<path d="M124.898 235.101H112.487C109.725 235.101 107.487 237.339 107.487 240.101V252.513C107.487 255.274 109.725 257.513 112.487 257.513H124.898C127.66 257.513 129.898 255.274 129.898 252.513V240.101C129.898 237.339 127.66 235.101 124.898 235.101Z" fill="#E6E6E6"/>
<path d="M124.898 277.303H112.487C109.725 277.303 107.487 279.541 107.487 282.303V294.715C107.487 297.476 109.725 299.715 112.487 299.715H124.898C127.66 299.715 129.898 297.476 129.898 294.715V282.303C129.898 279.541 127.66 277.303 124.898 277.303Z" fill="#E6E6E6"/>
<path d="M124.898 318.525H112.487C109.725 318.525 107.487 320.763 107.487 323.525V335.937C107.487 338.698 109.725 340.937 112.487 340.937H124.898C127.66 340.937 129.898 338.698 129.898 335.937V323.525C129.898 320.763 127.66 318.525 124.898 318.525Z" fill="#388CEF"/>
<path d="M368.938 364.332H195.908C193.147 364.332 190.908 366.571 190.908 369.332V373.089C190.908 375.85 193.147 378.089 195.908 378.089H368.938C371.699 378.089 373.938 375.85 373.938 373.089V369.332C373.938 366.571 371.699 364.332 368.938 364.332Z" fill="#E6E6E6"/>
<path d="M468.546 404.718H195.908C193.147 404.718 190.908 406.957 190.908 409.718V413.475C190.908 416.236 193.147 418.475 195.908 418.475H468.546C471.308 418.475 473.546 416.236 473.546 413.475V409.718C473.546 406.957 471.308 404.718 468.546 404.718Z" fill="#388CEF"/>
<path d="M419.191 443.18H198.847C196.085 443.18 193.847 445.419 193.847 448.18V451.937C193.847 454.698 196.085 456.937 198.847 456.937H419.191C421.952 456.937 424.191 454.698 424.191 451.937V448.18C424.191 445.419 421.952 443.18 419.191 443.18Z" fill="#E6E6E6"/>
<path d="M320.379 485.382H195.908C193.147 485.382 190.908 487.62 190.908 490.382V494.139C190.908 496.9 193.147 499.139 195.908 499.139H320.379C323.14 499.139 325.379 496.9 325.379 494.139V490.382C325.379 487.62 323.14 485.382 320.379 485.382Z" fill="#E6E6E6"/>
<path d="M388.86 526.604H195.908C193.147 526.604 190.908 528.843 190.908 531.604V535.361C190.908 538.122 193.147 540.361 195.908 540.361H388.86C391.621 540.361 393.86 538.122 393.86 535.361V531.604C393.86 528.843 391.621 526.604 388.86 526.604Z" fill="#E6E6E6"/>
<path d="M124.898 360.005H112.487C109.725 360.005 107.487 362.243 107.487 365.005V377.417C107.487 380.178 109.725 382.417 112.487 382.417H124.898C127.66 382.417 129.898 380.178 129.898 377.417V365.005C129.898 362.243 127.66 360.005 124.898 360.005Z" fill="#E6E6E6"/>
<path d="M124.898 400.391H112.487C109.725 400.391 107.487 402.629 107.487 405.391V417.802C107.487 420.564 109.725 422.802 112.487 422.802H124.898C127.66 422.802 129.898 420.564 129.898 417.802V405.391C129.898 402.629 127.66 400.391 124.898 400.391Z" fill="#388CEF"/>
<path d="M124.898 438.853H112.487C109.725 438.853 107.487 441.091 107.487 443.853V456.265C107.487 459.026 109.725 461.265 112.487 461.265H124.898C127.66 461.265 129.898 459.026 129.898 456.265V443.853C129.898 441.091 127.66 438.853 124.898 438.853Z" fill="#E6E6E6"/>
<path d="M124.898 481.054H112.487C109.725 481.054 107.487 483.293 107.487 486.054V498.466C107.487 501.228 109.725 503.466 112.487 503.466H124.898C127.66 503.466 129.898 501.228 129.898 498.466V486.054C129.898 483.293 127.66 481.054 124.898 481.054Z" fill="#E6E6E6"/>
<path d="M124.898 522.277H112.487C109.725 522.277 107.487 524.515 107.487 527.277V539.688C107.487 542.45 109.725 544.688 112.487 544.688H124.898C127.66 544.688 129.898 542.45 129.898 539.688V527.277C129.898 524.515 127.66 522.277 124.898 522.277Z" fill="#E6E6E6"/>
</g>
<defs>
<filter id="filter0_d_2_104" x="0" y="0" width="1387" height="699.871" filterUnits="userSpaceOnUse" color-interpolation-filters="sRGB">
<feFlood flood-opacity="0" result="BackgroundImageFix"/>
<feColorMatrix in="SourceAlpha" type="matrix" values="0 0 0 0 0 0 0 0 0 0 0 0 0 0 0 0 0 0 127 0" result="hardAlpha"/>
<feOffset dy="4"/>
<feGaussianBlur stdDeviation="2"/>
<feComposite in2="hardAlpha" operator="out"/>
<feColorMatrix type="matrix" values="0 0 0 0 0 0 0 0 0 0 0 0 0 0 0 0 0 0 0.25 0"/>
<feBlend mode="normal" in2="BackgroundImageFix" result="effect1_dropShadow_2_104"/>
<feBlend mode="normal" in="SourceGraphic" in2="effect1_dropShadow_2_104" result="shape"/>
</filter>
</defs>
</svg>
