<svg width="973" height="774" viewBox="0 0 973 774" fill="none" xmlns="http://www.w3.org/2000/svg">
<g filter="url(#filter0_d_2_236)">
<path opacity="0.18" d="M167.274 745.208C132.304 739.464 99.3849 724.867 71.6453 702.806C39.0198 677.107 3.50423 642.479 4.59603 599.499C5.75205 553.948 22.7713 510.069 41.2034 469.016C66.1221 413.572 100.803 355.108 91.6188 293.368C82.4349 231.628 94.7658 157.745 127.263 105.449C178.642 23.0865 268.555 3.10612 358.467 1.17875C417.874 -0.0419204 479.015 3.4916 533.155 27.9692C590.057 53.6675 635.913 101.209 693.714 123.246C732.248 137.765 774.379 140.656 812.078 156.974C859.539 177.597 896.146 218.458 919.845 264.457C943.543 310.457 955.617 361.533 964.801 412.223C979.83 497.926 944.121 604.96 892.678 675.116C858.383 721.758 800.967 775.789 741.946 764.482C441.444 707.431 499.181 799.11 167.274 745.208Z" fill="#388CEF"/>
<path d="M572.974 137.636L774.314 164.427L632.83 179.46L572.974 137.636Z" fill="#388CEF"/>
<path d="M632.83 179.46L643.555 242.678L660.703 190.189L774.314 164.427L632.83 179.46Z" fill="#388CEF"/>
<path d="M632.83 179.46L643.555 242.678L660.703 190.189L774.314 164.427L632.83 179.46Z" fill="url(#paint0_linear_2_236)"/>
<path d="M703.54 248.075L660.703 190.189L774.314 164.427L703.54 248.075Z" fill="#388CEF"/>
<path d="M643.555 242.678L684.723 222.569L660.703 190.189L643.555 242.678Z" fill="white"/>
<path opacity="0.59" d="M643.555 242.678L684.723 222.569L660.703 190.189L643.555 242.678Z" fill="#388CEF"/>
<path d="M609.581 248.778L607.719 240.365C609.891 239.937 612.035 239.379 614.141 238.695L617.095 246.723C614.638 247.57 612.128 248.257 609.581 248.778V248.778Z" fill="#388CEF"/>
<path d="M348.705 640.487C344.017 638.945 339.457 637.403 335.026 635.733L337.98 627.702C342.283 629.308 346.779 630.85 351.339 632.328L348.705 640.487ZM308.245 624.49C303.749 622.306 299.382 620.057 295.4 618.065L299.446 610.292C303.364 612.476 307.538 614.66 311.905 616.716L308.245 624.49ZM655.051 619.222H640.601V610.613L654.795 610.998L655.051 619.222ZM683.952 618.708L683.502 610.163C688.319 610.163 693.072 609.585 697.632 609.135L698.338 617.68C693.842 618.13 689.026 618.451 684.08 618.708H683.952ZM611.893 616.716L597.571 615.239L598.535 606.694C603.287 607.272 607.976 607.722 612.664 608.172L611.893 616.716ZM727.495 613.633L726.018 605.216C730.707 604.381 735.395 603.417 739.826 602.39L741.753 610.741C736.936 612.091 732.12 613.054 727.239 613.889L727.495 613.633ZM769.69 602.325L766.672 594.359C771.167 592.624 775.47 590.825 779.517 588.898L783.241 596.607C778.682 598.92 774.122 600.848 769.433 602.582L769.69 602.325ZM271.252 601.169C267.407 598.06 263.76 594.712 260.334 591.147L266.756 585.236C269.942 588.549 273.331 591.66 276.904 594.552L271.252 601.169ZM808.417 581.253L803.151 574.443C805.399 572.708 807.582 570.845 809.573 568.918L813.234 565.32L819.207 571.423L815.225 575.214C813.234 577.526 810.601 579.582 808.16 581.51L808.417 581.253ZM243.251 566.605C241.065 562.079 239.343 557.344 238.113 552.471L246.462 550.608C247.417 555.037 248.86 559.346 250.765 563.457L243.251 566.605ZM403.167 564.549L389.359 558.895L392.827 551.057C397.13 552.92 401.497 554.783 405.672 556.582L403.167 564.549ZM838.731 549.194L831.73 544.247C834.361 540.511 836.743 536.605 838.859 532.555L846.437 536.474C844.06 540.977 841.377 545.313 838.409 549.451L838.731 549.194ZM363.477 546.753C359.11 544.633 354.807 542.448 350.632 540.328L354.486 533.197C358.66 535.381 362.899 537.566 367.33 539.622L363.477 546.753ZM325.135 526.772C320.961 524.331 316.786 521.825 312.805 519.256L317.364 511.996C321.282 514.501 325.392 517.007 329.503 519.448L325.135 526.772ZM246.141 524.267L237.727 522.661C238.718 517.763 240.092 512.951 241.838 508.27L249.866 511.225C248.346 515.368 247.144 519.62 246.269 523.946L246.141 524.267ZM854.979 508.334L846.437 507.434C846.682 505.301 846.81 503.157 846.823 501.01C846.815 498.863 846.686 496.718 846.437 494.585L854.979 493.686C855.236 496.183 855.364 498.692 855.364 501.203C855.382 503.475 855.296 505.748 855.108 508.013L854.979 508.334ZM288.849 503.066C284.932 500.175 281.014 497.284 277.289 494.328L282.555 487.583C286.216 490.474 290.005 493.3 293.859 496.127L288.849 503.066ZM262.839 486.555L255.71 481.8C258.407 477.881 261.362 473.962 264.508 470.043L270.931 475.44C268.169 479.102 265.343 482.893 262.839 486.555ZM255.389 475.376C251.792 472.035 248.324 468.566 245.049 465.161L251.471 459.186C254.682 462.527 257.893 465.611 261.49 469.144L255.389 475.376ZM838.474 468.502C836.325 464.483 833.901 460.619 831.216 456.937L838.153 451.862C841.069 455.964 843.708 460.257 846.052 464.711L838.474 468.502ZM290.391 455.01L284.546 448.585C288.014 445.373 291.675 442.161 295.464 438.949L300.923 445.373C297.262 448.714 293.73 451.862 290.391 455.01ZM226.167 442.675C223.213 438.692 220.387 434.644 217.882 430.597L225.139 426.035C227.516 429.89 230.213 433.745 233.039 437.535L226.167 442.675ZM812.527 436.25C809.252 433.231 805.655 430.211 801.866 427.256L807.133 420.831C811.114 423.915 814.839 427.256 818.307 430.275L812.527 436.25ZM323.401 428.541L318.713 421.474C322.631 418.775 326.741 416.077 330.787 413.443L335.411 420.703C331.558 423.208 327.255 425.842 323.401 428.541ZM778.682 411.13C774.764 408.689 770.654 406.312 766.479 403.999L770.654 396.482C774.957 398.859 779.195 401.365 783.177 403.806L778.682 411.13ZM359.623 406.376L355.577 398.859C359.752 396.546 364.119 394.298 368.422 392.435L372.275 400.144C368.037 401.815 363.67 404.063 359.623 406.312V406.376ZM204.46 404.706C202.661 400.08 201.056 395.326 199.771 390.7L208.056 388.452C209.276 392.756 210.753 397.189 212.423 401.301L204.46 404.706ZM741.239 391.278L728.395 385.56L731.734 377.658C736.166 379.586 740.661 381.513 744.964 383.505L741.239 391.278ZM397.965 388.002L394.625 380.1C398.992 378.236 403.552 376.373 407.984 374.639L411.131 382.605C406.763 384.083 402.204 385.946 397.965 387.809V388.002ZM701.806 375.153C697.375 373.611 692.879 372.069 688.319 370.591L690.952 362.432C695.576 363.91 700.201 365.516 704.632 367.058L701.806 375.153ZM437.848 372.583L435.15 364.424C439.774 362.946 444.398 361.468 449.023 360.119L451.463 368.343C447.16 369.884 442.343 371.298 437.848 372.583ZM661.024 362.368C656.464 361.211 651.776 360.055 647.216 359.027L649.143 350.675C653.767 351.703 658.519 352.859 663.208 354.08L661.024 362.368ZM195.468 361.147C195.468 358.834 195.468 356.586 195.468 354.337C195.468 352.088 195.468 349.069 195.468 346.499L204.01 346.885C204.01 349.326 204.01 351.767 204.01 354.337C204.01 356.907 204.01 358.642 204.01 360.762L195.468 361.147ZM478.886 361.147L476.96 353.309C481.648 352.217 486.401 351.189 491.089 350.225L492.759 358.642C488.135 359.22 483.446 360.248 478.886 361.276V361.147ZM619.407 353.695L614.141 353.309L605.535 352.281L606.434 343.737L615.361 344.829L620.82 345.664L619.407 353.695ZM520.76 353.695L519.604 345.214C524.421 344.572 529.238 344.058 533.99 343.608L534.825 352.088C530.137 352.474 525.448 353.309 520.76 353.63V353.695ZM563.083 350.354V341.809C567.9 341.809 572.717 341.809 577.534 341.809V350.418C572.524 350.161 567.772 350.225 563.083 350.29V350.354ZM207.606 319.452L199.257 317.589C200.285 312.77 201.634 308.016 203.111 303.39L211.267 306.089C209.806 310.473 208.584 314.934 207.606 319.452V319.452ZM222.506 280.904L215.121 276.6C217.608 272.354 220.309 268.237 223.213 264.265L230.149 269.34C227.346 273.025 224.752 276.865 222.378 280.84L222.506 280.904ZM579.974 251.159C575.045 250.909 570.134 250.373 565.267 249.552L566.68 241.072C571.229 241.839 575.818 242.354 580.424 242.614L579.974 251.159ZM248.71 248.717L242.929 242.293C246.526 239.08 250.315 235.868 254.297 232.913L259.435 239.787C255.71 242.678 252.049 245.633 248.71 248.717ZM537.073 241.2C532.526 239.308 528.087 237.163 523.779 234.776L527.889 227.259C531.94 229.457 536.098 231.452 540.348 233.234L537.073 241.2ZM283.069 224.818L279.023 217.237C283.262 215.052 287.693 212.868 291.868 210.812L295.336 218.65C291.354 220.706 287.051 222.762 283.069 224.818ZM499.374 218.393C495.711 215.889 491.819 213.738 487.749 211.969L491.346 204.195C495.849 206.3 500.149 208.816 504.19 211.712L499.374 218.393ZM322.053 209.013L319.548 200.79C324.108 199.441 328.86 198.156 333.613 196.935L335.604 205.287C331.044 206.379 326.484 207.664 322.053 209.013ZM461.418 203.039C457.05 202.011 452.426 201.111 447.674 200.34L449.023 191.924C453.968 192.695 458.784 193.659 463.409 194.751L461.418 203.039ZM363.67 199.955L362.449 191.474C367.202 190.832 372.083 190.254 376.9 189.804L377.67 198.349C372.661 199.12 367.972 199.12 363.67 199.955ZM419.993 197.449C415.369 197.449 410.617 197.064 405.864 197.064V188.519C410.745 188.519 415.626 188.519 420.379 188.904L419.993 197.449Z" fill="#388CEF"/>
<path d="M383.707 650.442L376.514 648.836L378.634 640.487C380.946 641.129 383.193 641.707 385.505 642.221L383.707 650.442Z" fill="#388CEF"/>
<path d="M473.62 306.795C473.422 309.691 472.75 312.534 471.629 315.212C470.652 316.7 469.355 317.951 467.833 318.874C466.311 319.796 464.602 320.367 462.831 320.544C459.298 321.122 455.702 320.865 452.169 321.186C448.637 321.508 444.784 323.563 445.169 326.84C445.351 327.845 445.769 328.792 446.389 329.603L450.692 336.862C451.25 337.574 451.524 338.466 451.463 339.368C451.463 340.589 449.857 341.231 448.701 341.745C445.789 343.23 443.218 345.305 441.15 347.838C439.082 350.371 437.564 353.306 436.692 356.457C434.939 362.762 434.939 369.426 436.692 375.731C436.745 376.172 436.887 376.599 437.107 376.985C437.328 377.371 437.623 377.709 437.976 377.979C438.566 378.3 439.232 378.456 439.903 378.429C441.919 378.772 443.845 379.518 445.566 380.621C447.287 381.725 448.769 383.165 449.922 384.854C452.151 388.359 454.146 392.007 455.894 395.776C460.706 404.804 467.734 412.459 476.318 418.022C484.901 423.585 494.758 426.873 504.961 427.577C506.632 427.742 508.319 427.545 509.906 426.999C511.806 426.037 513.34 424.481 514.274 422.566C518.705 414.471 517.421 404.77 517.742 395.904C517.722 391.504 518.551 387.141 520.182 383.055C521.21 380.742 522.173 380.614 523.65 379.264C524.353 378.801 524.932 378.172 525.335 377.433C525.738 376.694 525.954 375.866 525.962 375.024C525.621 372.839 525.083 370.689 524.357 368.6C523.824 364.563 524.734 360.467 526.926 357.035C529.102 353.676 531.095 350.201 532.898 346.628C534.151 343.306 534.929 339.823 535.21 336.284C537.044 327.252 535.514 317.861 530.907 309.879C529.105 307.329 526.782 305.191 524.092 303.607C521.401 302.023 518.405 301.03 515.301 300.692C512.753 300.618 510.217 300.317 507.723 299.793C503.934 298.572 502.649 294.653 498.667 293.368C495.221 292.165 491.508 291.942 487.942 292.726C484.467 293.472 481.276 295.191 478.741 297.682C476.205 300.173 474.429 303.334 473.62 306.795Z" fill="#473F47"/>
<path d="M492.951 692.912C495.302 694.963 497.317 697.369 498.924 700.043C499.24 700.539 499.376 701.129 499.31 701.713C499.31 702.613 498.089 703.127 497.126 703.384C493.144 704.412 488.933 704.079 485.163 702.438C481.392 700.796 478.279 697.941 476.317 694.325C473.344 690.064 471.732 685.002 471.693 679.806L472.785 671.454C472.917 670.156 473.219 668.882 473.684 667.663C474.304 666.475 475.106 665.391 476.061 664.451C477.647 662.662 479.566 661.2 481.712 660.146C481.962 660.058 482.234 660.058 482.483 660.146C482.997 660.146 483.254 660.789 483.382 661.239C483.74 663.382 483.608 665.578 482.997 667.663C482.249 673.783 483.682 679.97 487.043 685.138C488.667 687.974 490.653 690.588 492.951 692.912V692.912Z" fill="#F89659"/>
<path d="M514.466 645.622C514.588 646.27 514.851 646.884 515.237 647.42C515.575 647.862 516.016 648.215 516.521 648.447C518.713 649.358 521.107 649.668 523.457 649.347C526.348 649.347 529.173 648.769 531.999 648.319C532.803 648.327 533.596 648.131 534.304 647.749C535.011 647.367 535.611 646.812 536.045 646.135C536.253 645.373 536.194 644.564 535.879 643.839C535.563 643.115 535.01 642.521 534.311 642.154C532.911 641.437 531.384 641 529.816 640.869C528.235 640.665 526.766 639.943 525.641 638.814C524.036 636.823 524.742 633.676 523.072 631.749C522.047 630.982 520.854 630.471 519.592 630.259C518.329 630.046 517.034 630.139 515.815 630.529C510.613 632.135 513.374 641.961 514.466 645.622Z" fill="#F89659"/>
<path d="M537.073 569.11C536.752 570.459 536.495 571.809 536.238 573.158C533.348 589.862 529.816 606.501 526.54 623.141C526.132 626.804 524.658 630.266 522.301 633.099C521.657 633.897 520.831 634.53 519.893 634.943C518.954 635.357 517.93 635.54 516.907 635.476H516.329C513.631 634.577 512.09 630.786 512.09 626.996L513.503 558.895C513.725 558.097 513.725 557.253 513.503 556.454C512.971 555.731 512.264 555.156 511.448 554.784C509.521 553.756 507.659 552.663 505.796 551.571C500.08 548.295 494.493 544.761 489.034 541.099C481.712 536.152 474.583 530.948 467.712 525.359C462.718 522.316 458.756 517.838 456.344 512.51C454.058 505.958 451.443 499.525 448.509 493.236C445.114 485.296 441.076 477.647 436.435 470.365C435.857 469.53 433.673 465.289 432.453 465.097L479.143 470.236C483.284 470.055 487.334 471.482 490.447 474.219C495.535 480.161 500.172 486.475 504.319 493.108C514.017 505.957 523.586 519.256 533.476 532.298C537.535 536.66 540.119 542.189 540.862 548.102C540.311 555.215 539.042 562.253 537.073 569.11V569.11Z" fill="#473F47"/>
<path d="M484.024 665.543C483.394 666.421 482.636 667.201 481.777 667.856C480.455 669.008 478.986 669.981 477.409 670.747H476.96C475.171 671.486 473.162 671.486 471.372 670.747C466.684 668.755 468.097 657.255 467.84 652.758C467.39 645.691 467.005 638.688 466.556 631.621C465.785 617.873 464.95 604.124 464.179 590.311C463.794 583.887 463.344 577.462 463.023 571.038L460.647 566.862L459.555 564.999L458.271 562.75L456.922 560.244C456.151 558.96 455.381 557.546 454.546 556.068C453.197 553.563 451.913 550.929 450.564 548.359C449.723 546.633 448.78 544.96 447.738 543.348C447.394 542.804 447.008 542.288 446.582 541.806C444.01 539.019 441.242 536.421 438.297 534.032C429.414 525.754 423.501 514.782 421.471 502.809C420.938 499.539 420.723 496.226 420.828 492.915C420.897 487.769 421.719 482.661 423.269 477.753C424.483 474.25 426.032 470.873 427.893 467.666C429.355 464.816 431.312 462.249 433.673 460.085C434.778 459.063 436.035 458.218 437.398 457.58C446.261 453.532 455.252 463.619 461.418 468.951C467.583 474.284 478.244 481.8 481.584 489.831C484.923 497.862 491.217 565.32 491.217 565.32C491.217 581.895 491.217 598.471 490.254 614.982C489.869 624.811 489.419 634.641 488.456 644.406C488.412 651.678 486.905 658.867 484.024 665.543V665.543Z" fill="#473F47"/>
<path d="M477.409 670.747H476.96C475.171 671.486 473.162 671.486 471.372 670.747C466.684 668.755 468.097 657.255 467.84 652.758C467.39 645.691 467.005 638.688 466.556 631.621C465.785 617.873 464.95 604.124 464.179 590.311C463.794 583.887 463.344 577.462 463.023 571.038L460.647 566.862L459.555 564.999L458.271 562.75L456.922 560.245C456.151 558.96 455.381 557.546 454.546 556.069L449.986 547.909L446.582 541.485C444.01 538.698 441.242 536.1 438.297 533.711C429.475 525.517 423.567 514.667 421.471 502.809C420.938 499.539 420.723 496.226 420.828 492.915C420.897 487.769 421.719 482.661 423.269 477.753C424.483 474.25 426.032 470.873 427.893 467.667C429.355 464.816 431.312 462.249 433.673 460.086C434.19 460.561 434.643 461.1 435.022 461.692C439.903 468.694 439.646 477.882 440.16 486.426C440.483 497.085 442.656 507.607 446.582 517.521V517.521L448.316 521.055C448.548 521.56 448.805 522.053 449.087 522.532C455.782 533.154 461.726 544.232 466.877 555.683C476.96 581.381 473.299 609.521 474.583 636.761C474.98 644.296 475.795 651.803 477.024 659.247C477.781 663.033 477.911 666.918 477.409 670.747V670.747Z" fill="url(#paint1_linear_2_236)"/>
<path d="M621.27 460.278C618.637 460.278 616.003 460.278 613.435 460.278C610.736 460.064 608.09 459.413 605.599 458.351C603.223 457.259 601.232 455.588 598.792 454.56C593.782 452.376 588.323 451.348 583.442 448.843C576.056 445.116 568.928 440.876 561.863 436.7L544.78 426.549C539.008 423.246 533.413 419.643 528.017 415.756L524.87 413.315C523.329 412.03 521.402 410.616 519.476 411.195C518.694 411.565 517.995 412.089 517.42 412.736C515.186 415.798 513.771 419.381 513.31 423.144C512.465 426.424 511.19 429.578 509.521 432.524C506.374 438.306 503.42 444.217 500.016 449.806C497.543 455.273 494.056 460.222 489.74 464.39C486.905 465.891 483.667 466.453 480.492 465.996C473.703 465.086 466.843 464.828 460.005 465.225C456.877 465.963 453.7 466.478 450.5 466.767C445.553 466.662 440.766 464.998 436.82 462.013C433.352 459.315 434.893 455.588 436.306 452.055C441.701 437.985 447.032 429.762 440.738 415.306C441.958 418.133 415.819 428.155 412.544 428.155C398.864 428.155 390.708 418.133 380.432 410.359C374.322 405.874 367.881 401.858 361.165 398.345C359.124 397.157 356.973 396.167 354.742 395.39C352.623 394.683 349.861 394.748 348.32 393.27C347.678 392.683 347.116 392.013 346.65 391.278C345.799 389.952 345.109 388.528 344.595 387.038C344.164 385.263 343.253 383.64 341.962 382.348C340.025 381.213 337.725 380.868 335.54 381.385C334.366 381.512 333.181 381.512 332.007 381.385C331.784 381.378 331.565 381.322 331.366 381.223C331.166 381.123 330.991 380.981 330.851 380.806C330.69 380.594 330.602 380.334 330.602 380.068C330.602 379.801 330.69 379.541 330.851 379.329C331.299 379.023 331.8 378.805 332.328 378.686L341.127 376.823C338.622 374.639 334.705 375.217 331.622 374.189C331.207 374.078 330.829 373.856 330.53 373.547C330.38 373.189 330.376 372.785 330.52 372.425C330.664 372.064 330.945 371.775 331.301 371.619C332.055 371.39 332.859 371.39 333.613 371.619L343.118 372.711C340.292 369.242 334.255 370.27 331.365 366.865C332.488 366.113 333.782 365.654 335.129 365.53C336.475 365.407 337.83 365.623 339.072 366.158C342.771 366.686 346.354 367.838 349.669 369.563C351.682 370.736 353.538 372.161 355.192 373.804C361.541 380.698 368.366 387.138 375.615 393.077C380.683 396.383 386.169 398.997 391.928 400.851C394.433 401.75 397.066 402.329 399.57 403.164C402.075 403.999 405.222 405.541 407.984 406.697C409.012 407.244 410.159 407.531 411.323 407.533C412.256 407.354 413.149 407.005 413.956 406.505C419.755 402.95 424.885 398.406 429.113 393.077C433.673 387.681 439.004 382.926 443.82 377.787C445.688 375.581 448.01 373.806 450.628 372.583C455.509 370.913 460.711 373.354 465.913 373.547C468.082 373.654 470.25 373.303 472.275 372.517C474.3 371.731 476.137 370.528 477.666 368.985C480.685 365.452 480.556 360.183 484.088 356.65C486.072 354.769 488.541 353.479 491.217 352.924C494.153 351.974 497.01 350.792 499.759 349.39C501.943 348.362 504.704 347.399 506.631 348.876C506.93 349.071 507.175 349.338 507.343 349.652C507.512 349.967 507.598 350.318 507.594 350.675C507.581 351.299 507.38 351.903 507.016 352.41C505.651 355.084 504.429 357.829 503.355 360.633C501.973 363.462 501.437 366.63 501.814 369.756C502.713 374.189 508.236 376.695 511.961 378.301C517.356 380.614 523.329 380.999 528.724 383.183C534.103 385.669 538.929 389.208 542.917 393.591C549.34 400.016 554.67 406.44 560.514 412.865C563.469 416.077 566.487 419.29 569.763 422.309C574.113 425.381 578.71 428.089 583.506 430.404C588.808 433.888 594.369 436.959 600.14 439.591C604.261 441.437 608.567 442.837 612.985 443.767C614.782 444.286 616.604 444.715 618.444 445.052C620.371 445.052 621.398 444.41 623.004 443.446C625.453 442.167 628.284 441.825 630.968 442.482C636.763 443.77 642.188 446.363 646.831 450.063C648.179 450.963 649.657 452.312 649.4 453.918C649.468 454.127 649.468 454.352 649.4 454.56C648.886 455.01 648.115 454.56 647.537 454.111C645.549 452.674 643.106 452.012 640.665 452.248C642.464 453.661 644.39 455.396 644.198 457.644C644.262 457.809 644.262 457.993 644.198 458.158C644.108 458.203 644.009 458.227 643.909 458.227C643.808 458.227 643.709 458.203 643.62 458.158C641.629 458.158 640.151 456.295 638.289 455.396C636.48 454.569 634.492 454.216 632.509 454.368C631.61 454.368 628.72 454.368 628.72 455.524C628.664 455.713 628.664 455.914 628.72 456.102C629.258 456.801 629.884 457.427 630.582 457.965C630.931 458.228 631.195 458.587 631.344 458.998C631.492 459.408 631.517 459.853 631.417 460.278C630.968 461.178 629.747 461.306 628.72 461.242C626.022 461.113 623.71 460.535 621.27 460.278Z" fill="#F89659"/>
<path d="M613.178 459.379C612.474 459.816 611.686 460.101 610.866 460.214C608.207 460.029 605.692 458.941 603.737 457.13C597.129 453.843 590.306 451.01 583.314 448.65C575.928 444.924 568.799 440.683 561.735 436.507L544.78 426.549C539.008 423.246 533.413 419.643 528.017 415.756C529.494 416.848 535.596 407.597 536.623 406.762C542.596 401.879 540.477 412.351 540.348 415.884C540.219 416.585 540.219 417.304 540.348 418.005C540.811 418.919 541.554 419.661 542.468 420.125C553.257 427.192 564.368 433.745 575.8 439.784C581.58 442.803 587.552 445.566 593.397 448.521C598.214 450.963 603.416 452.376 608.425 454.368C610.545 455.203 612.921 456.488 612.985 458.736C613.082 458.939 613.147 459.156 613.178 459.379Z" fill="#D57439"/>
<path d="M480.877 360.311C481.03 362.558 480.493 364.799 479.336 366.733C477.666 368.981 488.841 371.935 492.181 368.724C495.664 364.812 498.883 360.671 501.814 356.329L480.877 360.311Z" fill="#D57439"/>
<path d="M494.107 361.083C490.528 362.476 486.614 362.767 482.868 361.918C481.014 361.46 479.284 360.593 477.807 359.382C476.329 358.171 475.14 356.645 474.327 354.915C473.518 352.563 473.191 350.073 473.363 347.591C473.771 335.563 477.9 323.958 485.18 314.376C486.252 312.789 487.654 311.452 489.291 310.457C491.51 309.384 494.044 309.156 496.419 309.815C500.992 311.023 505.049 313.683 507.98 317.396C510.881 321.054 513.339 325.044 515.301 329.281C516.714 331.915 519.347 336.091 518.127 339.175C516.347 342.025 514.186 344.619 511.705 346.885C507.249 353.14 501.162 358.051 494.107 361.083V361.083Z" fill="#F89659"/>
<path d="M497.64 465.354C496.136 467.746 494.007 469.682 491.482 470.95C488.958 472.218 486.134 472.771 483.318 472.549C472.207 473.449 461.032 470.558 449.986 472.549C446.582 473.127 443.564 474.155 439.839 474.412H438.875C437.006 474.588 435.121 474.326 433.37 473.646C431.62 472.965 430.052 471.886 428.792 470.493C425.324 465.932 427.508 459.379 429.755 454.046C433.93 444.474 441.765 433.488 437.27 422.823C436.692 421.667 435.921 420.639 435.407 419.482C434.879 418.227 434.512 416.91 434.315 415.563L432.646 407.34C431.489 401.879 430.398 396.418 429.242 390.893C428.984 389.794 428.984 388.651 429.242 387.552C429.808 386.115 430.821 384.899 432.132 384.083L443.756 374.831C446.018 372.709 448.746 371.147 451.72 370.27C454.875 369.993 458.054 370.167 461.161 370.784C465.295 370.633 469.395 369.964 473.363 368.792C473.877 368.792 474.455 368.792 474.84 368.792C475.24 369.181 475.471 369.712 475.483 370.27C475.928 372.076 476.761 373.764 477.923 375.217C478.755 376.242 479.656 377.207 480.62 378.108L481.841 379.264L488.841 385.689C490.311 387.241 492.025 388.543 493.915 389.544C500.337 392.435 504.897 384.725 504.576 379.007C504.207 375.797 503.249 372.683 501.75 369.82C504.704 370.977 507.659 372.262 510.613 373.611C513.289 375.207 516.08 376.602 518.962 377.787C523.458 379.007 527.76 377.787 531.807 380.614C537.152 384.09 542.067 388.188 546.449 392.82L543.495 399.63C539.578 407.854 535.018 416.72 526.669 420.317C524.485 421.217 522.237 421.795 520.246 422.823C516.65 424.622 516.264 427.449 514.659 430.661C511.897 436.25 509.136 441.84 506.631 447.493C504.122 453.68 501.115 459.653 497.64 465.354V465.354Z" fill="white"/>
<path d="M509.264 384.977C509.784 384.343 510.443 383.838 511.191 383.5C511.801 383.339 512.443 383.339 513.053 383.5C521.145 384.142 529.238 385.041 537.266 386.133C527.311 377.27 511.576 377.656 500.915 370.142C499.438 372.903 500.915 376.114 501.686 379.133C502.136 381.855 502.136 384.632 501.686 387.353C503.046 387.669 504.466 387.614 505.798 387.197C507.131 386.779 508.327 386.013 509.264 384.977Z" fill="url(#paint2_linear_2_236)"/>
<path d="M352.238 391.851C350.462 392.315 348.58 392.156 346.907 391.402C346.044 390.082 345.353 388.658 344.852 387.163C344.421 385.388 343.51 383.766 342.219 382.474C340.279 381.346 337.982 381.002 335.797 381.511C337.009 380.744 338.408 380.323 339.843 380.291C340.614 380.267 341.368 380.056 342.039 379.675C342.711 379.295 343.279 378.757 343.696 378.107C343.696 377.594 343.696 376.951 344.338 376.502C344.981 376.052 346.008 375.924 346.907 376.052C348.722 376.49 350.487 377.114 352.174 377.915C353.384 378.36 354.496 379.036 355.449 379.906C355.908 380.249 356.293 380.683 356.58 381.179C356.867 381.676 357.051 382.226 357.119 382.796C356.541 382.796 355.706 382.153 355.128 381.832C354.392 381.45 353.617 381.148 352.816 380.933C351.184 380.498 349.49 380.346 347.806 380.484C347.806 380.484 347.293 380.484 347.228 380.484C347.164 380.484 347.228 381.062 347.614 381.254C349.99 383.117 353.008 384.016 355.32 386.007C355.697 386.228 355.99 386.566 356.155 386.97C356.377 387.505 356.377 388.105 356.155 388.64C355.841 389.472 355.314 390.206 354.626 390.769C353.938 391.333 353.115 391.706 352.238 391.851V391.851Z" fill="#D57439"/>
<path d="M540.413 642.8C539.442 642.256 538.366 641.928 537.258 641.839C536.149 641.751 535.034 641.903 533.99 642.286C533.028 642.936 532.105 643.644 531.229 644.405C528.464 645.5 525.387 645.5 522.623 644.405C519.586 643.457 516.469 642.791 513.31 642.414C513.31 642.414 513.31 648.837 514.466 649.415C515.977 649.942 517.556 650.245 519.155 650.314C525.55 651.138 532.026 651.138 538.422 650.314C540.22 649.929 546.257 648.965 547.092 646.974C547.927 644.983 542.082 643.378 540.413 642.8Z" fill="#388CEF"/>
<path d="M503.227 701.264C504.387 702.554 505.126 704.168 505.347 705.889C505.376 706.489 505.194 707.08 504.833 707.56C504.402 707.883 503.892 708.083 503.356 708.138C499.136 709.067 494.779 709.198 490.511 708.523C486.301 707.865 482.446 705.778 479.593 702.613C477.731 700.364 476.51 697.666 474.776 695.353C473.042 693.04 471.437 691.562 470.088 689.442C468.739 687.322 470.088 683.532 471.115 681.219C472.272 681.219 471.886 683.467 472.4 684.495C474.148 688.272 476.638 691.659 479.721 694.453C481.04 695.966 482.656 697.191 484.467 698.053C486.279 698.915 488.249 699.396 490.254 699.465C490.984 699.465 491.703 699.29 492.351 698.955C492.999 698.619 493.558 698.133 493.979 697.537C494.621 696.509 493.979 694.132 495.071 693.747C496.163 693.361 502.2 700.236 503.227 701.264Z" fill="#388CEF"/>
<path d="M517.164 635.476H516.586C513.888 634.577 512.347 630.786 512.347 626.996L513.503 558.895C513.725 558.097 513.725 557.253 513.503 556.454C512.971 555.731 512.264 555.156 511.448 554.784C509.521 553.756 507.659 552.664 505.796 551.571C500.08 548.295 494.493 544.761 489.034 541.099L485.694 513.923C485.694 513.923 519.54 536.345 523.072 546.881C526.604 557.418 517.164 635.476 517.164 635.476Z" fill="url(#paint3_linear_2_236)"/>
<path d="M501.044 332.108C503.596 333.052 506.215 333.803 508.879 334.357C511.512 335.256 514.145 337.248 514.209 339.946C516.457 339.946 517.677 337.376 518.32 335.256C519.62 331.713 520.483 328.023 520.889 324.27C521.252 320.507 520.347 316.731 518.32 313.541C514.659 308.337 501.108 298.572 496.805 307.695C493.529 314.762 493.144 327.996 501.044 332.108Z" fill="#473F47"/>
<path d="M569.185 611.573C564.432 610.802 559.679 610.032 554.927 609.132L556.468 600.719C561.157 601.554 565.845 602.389 570.533 603.095L569.185 611.573Z" fill="#388CEF"/>
<path d="M526.476 603.478C521.788 602.45 517.164 601.358 512.475 600.202L514.466 591.917L528.338 595.129L526.476 603.478Z" fill="#388CEF"/>
<path d="M484.538 592.941L470.666 588.895L473.171 580.675C477.73 582.087 482.29 583.372 486.85 584.656L484.538 592.941Z" fill="#388CEF"/>
<path d="M443.242 580.028C438.747 578.486 434.187 576.881 429.691 575.211L432.646 567.183L446.068 571.936L443.242 580.028Z" fill="#388CEF"/>
<path d="M653.638 465.482L719.724 325.555L837.767 353.695L770.525 495.164L653.638 465.482Z" fill="#388CEF"/>
<path d="M159.182 164.427L362.128 99.6031L412.865 309.429L242.994 396.418L159.182 164.427Z" fill="white"/>
<path d="M147.429 580.032L243.957 640.487L276.39 532.876L169.907 460.214L147.429 580.032Z" fill="#388CEF"/>
<path d="M655.244 695.096L673.612 574.764L813.234 565.577L783.241 681.99L655.244 695.096Z" fill="white"/>
<path d="M700.971 445.437L688.769 442.675L698.338 423.722L710.605 426.485L700.971 445.437Z" fill="white"/>
<path d="M716.064 448.778L703.797 446.08L723.385 407.468L735.652 410.167L716.064 448.778Z" fill="#388CEF"/>
<path d="M731.156 452.183L718.89 449.421L730.835 425.907L743.038 428.669L731.156 452.183Z" fill="white"/>
<path d="M746.184 455.588L733.982 452.826L759.8 402.007L772.002 404.77L746.184 455.588Z" fill="#388CEF"/>
<path d="M716.064 448.778L703.797 446.08L723.385 407.468L735.652 410.167L716.064 448.778Z" fill="url(#paint4_linear_2_236)"/>
<path d="M746.184 455.588L733.982 452.826L759.8 402.007L772.002 404.77L746.184 455.588Z" fill="url(#paint5_linear_2_236)"/>
<path d="M761.277 458.993L749.074 456.231L782.085 391.214L794.288 393.977L761.277 458.993Z" fill="white"/>
<path d="M262.004 232.977C261.975 227.386 263.181 221.858 265.536 216.787L241.645 203.617C237.099 212.735 234.746 222.788 234.773 232.977C234.821 247.736 239.776 262.059 248.857 273.69C257.938 285.322 270.629 293.601 284.932 297.223L289.813 270.047C281.823 267.656 274.811 262.765 269.806 256.093C264.801 249.421 262.066 241.319 262.004 232.977V232.977Z" fill="#473F47"/>
<path opacity="0.18" d="M358.018 267.156C352.079 276.982 343.701 285.104 333.696 290.733C323.691 296.362 312.401 299.306 300.923 299.279C295.421 299.28 289.94 298.589 284.61 297.223L289.491 270.047C293.2 271.158 297.052 271.721 300.923 271.717C307.475 271.73 313.923 270.088 319.671 266.943C325.42 263.798 330.281 259.253 333.806 253.728L358.018 267.156Z" fill="#388CEF"/>
<path d="M367.459 232.977C367.475 245.016 364.211 256.833 358.018 267.156L333.806 253.985C336.727 249.478 338.685 244.415 339.559 239.114C340.432 233.814 340.201 228.39 338.881 223.183C337.56 217.976 335.179 213.098 331.885 208.855C328.591 204.612 324.457 201.095 319.741 198.526C315.025 195.956 309.829 194.389 304.48 193.923C299.13 193.456 293.741 194.1 288.652 195.815C283.563 197.529 278.882 200.277 274.905 203.886C270.927 207.495 267.737 211.887 265.536 216.787L241.645 203.617C248.266 190.132 259.256 179.287 272.826 172.849C286.396 166.412 301.745 164.761 316.373 168.166C331.001 171.571 344.045 179.831 353.38 191.6C362.715 203.369 367.79 217.953 367.78 232.977H367.459Z" fill="#388CEF"/>
<path d="M697.632 657.962C697.614 657.595 697.673 657.228 697.806 656.885C697.939 656.542 698.142 656.23 698.402 655.97C699.598 654.753 700.46 653.249 700.907 651.602C701.18 650.565 701.123 649.469 700.743 648.467C700.363 647.465 699.679 646.607 698.788 646.012C697.692 645.187 696.45 644.576 695.127 644.214C694.47 644.033 693.901 643.622 693.524 643.056C693.146 642.489 692.986 641.805 693.072 641.13C693.072 640.295 693.072 639.395 693.072 638.56C693.096 638.172 693.197 637.792 693.369 637.443C693.54 637.093 693.779 636.781 694.072 636.525C694.364 636.268 694.704 636.072 695.073 635.947C695.441 635.822 695.831 635.771 696.219 635.797C697.484 635.78 698.732 635.495 699.879 634.962C701.116 634.484 702.127 633.557 702.71 632.366C703.294 631.175 703.406 629.808 703.026 628.538C702.715 627.412 702.307 626.316 701.806 625.261C701.511 624.651 701.439 623.957 701.603 623.299C701.767 622.641 702.158 622.062 702.705 621.663C703.375 621.185 704.018 620.67 704.632 620.121C705.203 619.684 705.903 619.447 706.623 619.447C707.343 619.447 708.042 619.684 708.614 620.121C709.554 621.071 710.665 621.834 711.889 622.37C713.005 622.846 714.249 622.926 715.416 622.599C716.584 622.272 717.605 621.557 718.312 620.571C719.159 619.409 719.79 618.103 720.174 616.716C720.394 616.07 720.841 615.526 721.431 615.183C722.021 614.841 722.715 614.724 723.385 614.853H725.954C726.641 614.917 727.279 615.237 727.743 615.748C728.206 616.259 728.462 616.926 728.459 617.616C728.528 619.276 728.967 620.9 729.743 622.37C730.313 623.322 731.159 624.078 732.168 624.537C733.178 624.996 734.304 625.136 735.395 624.94C736.646 624.676 737.856 624.244 738.992 623.655C739.651 623.269 740.434 623.154 741.177 623.334C741.919 623.514 742.563 623.974 742.973 624.619C743.423 625.39 744.129 626.032 744.643 626.803C744.99 627.344 745.146 627.985 745.088 628.625C745.03 629.265 744.761 629.867 744.322 630.336C743.348 631.331 742.584 632.511 742.074 633.806C741.505 635.068 741.455 636.504 741.936 637.802C742.417 639.101 743.389 640.158 744.643 640.744C745.578 641.297 746.568 641.749 747.597 642.093C748.207 642.266 748.741 642.638 749.114 643.151C749.487 643.664 749.677 644.287 749.653 644.92C749.653 645.948 749.653 646.976 749.267 648.068C749.172 648.743 748.831 649.36 748.31 649.799C747.788 650.237 747.123 650.468 746.441 650.445C744.927 650.511 743.441 650.883 742.074 651.538C741.036 652.029 740.19 652.85 739.667 653.872C739.145 654.895 738.975 656.062 739.184 657.191C739.392 658.51 739.803 659.789 740.404 660.982C740.615 661.3 740.759 661.657 740.828 662.032C740.897 662.408 740.889 662.793 740.805 663.165C740.721 663.537 740.562 663.889 740.339 664.198C740.116 664.507 739.832 664.768 739.505 664.965L737.707 666.314C737.178 666.84 736.462 667.135 735.716 667.135C734.97 667.135 734.255 666.84 733.725 666.314C732.677 665.315 731.429 664.549 730.064 664.065C728.921 663.615 727.657 663.574 726.487 663.948C725.317 664.323 724.312 665.091 723.642 666.121C722.848 667.228 722.261 668.468 721.908 669.783C721.716 670.411 721.307 670.95 720.753 671.303C720.2 671.656 719.54 671.8 718.89 671.711L715.871 671.325C715.256 671.213 714.695 670.9 714.277 670.435C713.858 669.97 713.606 669.379 713.559 668.755C713.539 667.2 713.188 665.668 712.531 664.258C712.007 663.068 711.06 662.115 709.874 661.581C708.689 661.047 707.348 660.971 706.109 661.367C704.899 661.699 703.718 662.129 702.577 662.652C701.999 662.948 701.34 663.045 700.702 662.929C700.063 662.813 699.481 662.49 699.045 662.01C698.402 661.174 697.76 660.403 697.182 659.504C696.891 659.003 696.675 658.462 696.54 657.898L697.632 657.962ZM721.651 633.87C719.794 633.857 717.975 634.397 716.424 635.419C714.874 636.442 713.662 637.903 712.943 639.616C712.223 641.328 712.028 643.216 712.383 645.04C712.737 646.864 713.625 648.541 714.934 649.859C716.243 651.178 717.913 652.077 719.734 652.444C721.555 652.812 723.443 652.63 725.16 651.922C726.877 651.214 728.346 650.011 729.379 648.468C730.412 646.924 730.964 645.108 730.964 643.25C730.964 642.007 730.717 640.777 730.238 639.63C729.758 638.484 729.056 637.444 728.172 636.571C727.288 635.699 726.239 635.011 725.086 634.547C723.934 634.083 722.701 633.853 721.458 633.87H721.651Z" fill="#388CEF"/>
<path d="M768.663 630.722C768.694 631.085 768.694 631.451 768.663 631.814C768.642 632.26 768.473 632.685 768.182 633.023C767.891 633.361 767.495 633.591 767.057 633.677L765.13 634.191C764.627 634.328 764.091 634.28 763.62 634.057C763.149 633.833 762.773 633.447 762.562 632.971C762.112 632.2 761.662 631.429 761.149 630.722C760.81 630.271 760.383 629.895 759.893 629.617C759.404 629.338 758.862 629.164 758.302 629.103C757.742 629.043 757.175 629.099 756.637 629.267C756.1 629.434 755.602 629.711 755.176 630.079C754.531 630.562 753.93 631.1 753.378 631.686C753.043 632.072 752.583 632.329 752.078 632.411C751.574 632.493 751.056 632.396 750.616 632.135L749.075 631.236C748.537 630.972 748.123 630.51 747.92 629.947C747.716 629.383 747.739 628.763 747.983 628.216C748.298 627.325 748.492 626.396 748.561 625.454C748.633 624.427 748.306 623.413 747.648 622.622C746.989 621.832 746.051 621.327 745.029 621.214C744.023 621.15 743.015 621.15 742.01 621.214C741.508 621.2 741.028 621.003 740.661 620.66C740.295 620.316 740.066 619.851 740.019 619.35C739.929 618.807 739.8 618.27 739.634 617.744C739.476 617.223 739.513 616.662 739.737 616.166C739.962 615.669 740.358 615.272 740.854 615.046C741.817 614.583 742.705 613.976 743.487 613.247C744.186 612.617 744.631 611.754 744.737 610.819C744.844 609.884 744.605 608.942 744.065 608.172C743.544 607.479 742.986 606.814 742.395 606.18C742.126 606.008 741.896 605.78 741.721 605.512C741.546 605.245 741.431 604.942 741.382 604.626C741.334 604.31 741.353 603.987 741.439 603.679C741.525 603.371 741.676 603.084 741.882 602.839L742.652 601.426C742.934 600.958 743.376 600.609 743.896 600.444C744.416 600.278 744.978 600.308 745.478 600.526C746.573 600.987 747.765 601.163 748.946 601.04C749.755 601.019 750.535 600.73 751.162 600.219C751.79 599.707 752.23 599.002 752.414 598.214C752.651 597.16 752.759 596.081 752.735 595.001C752.692 594.507 752.813 594.012 753.08 593.593C753.348 593.175 753.746 592.857 754.212 592.689L756.46 592.175C756.971 592.033 757.517 592.094 757.984 592.346C758.45 592.597 758.802 593.019 758.965 593.524C759.462 594.677 760.234 595.692 761.213 596.479C761.931 597.086 762.841 597.419 763.782 597.419C764.722 597.419 765.632 597.086 766.351 596.479C766.93 596.037 767.468 595.542 767.956 595.001C768.292 594.599 768.755 594.322 769.268 594.217C769.782 594.112 770.315 594.185 770.782 594.423L772.645 595.515C773.076 595.782 773.397 596.194 773.55 596.678C773.703 597.161 773.678 597.683 773.48 598.149C773.071 599.192 772.874 600.306 772.902 601.426C772.907 602.395 773.26 603.33 773.897 604.061C774.533 604.792 775.41 605.271 776.37 605.409H779.067C779.61 605.354 780.153 605.51 780.584 605.845C781.014 606.18 781.299 606.668 781.379 607.208C781.379 607.85 781.7 608.493 781.829 609.135C781.972 609.613 781.925 610.127 781.697 610.57C781.47 611.013 781.079 611.351 780.608 611.512C779.565 611.957 778.625 612.614 777.847 613.44C777.239 614.028 776.845 614.804 776.729 615.642C776.613 616.48 776.78 617.333 777.205 618.066C777.761 618.961 778.43 619.782 779.195 620.507C779.651 620.863 779.957 621.378 780.052 621.949C780.147 622.52 780.025 623.106 779.709 623.591L778.81 625.068C778.687 625.325 778.514 625.554 778.301 625.742C778.088 625.93 777.839 626.073 777.569 626.163C777.3 626.253 777.015 626.288 776.731 626.265C776.448 626.243 776.172 626.163 775.92 626.032C774.542 625.585 773.059 625.585 771.681 626.032C770.983 626.243 770.356 626.643 769.869 627.187C769.381 627.731 769.053 628.398 768.92 629.116C768.853 629.842 768.853 630.574 768.92 631.3L768.663 630.722ZM760.699 606.052C759.774 606.043 758.857 606.218 758 606.566C757.144 606.914 756.364 607.429 755.708 608.08C755.051 608.731 754.529 609.506 754.173 610.36C753.818 611.213 753.634 612.129 753.635 613.054C753.622 614.455 754.025 615.827 754.794 616.998C755.562 618.169 756.661 619.084 757.951 619.629C759.24 620.174 760.663 620.323 762.037 620.058C763.412 619.792 764.677 619.124 765.671 618.138C766.666 617.153 767.345 615.894 767.623 614.521C767.901 613.149 767.765 611.724 767.232 610.429C766.699 609.134 765.794 608.027 764.631 607.247C763.467 606.468 762.099 606.052 760.699 606.052V606.052Z" fill="#388CEF"/>
<path d="M202.982 580.289C219.76 580.289 233.36 566.684 233.36 549.901C233.36 533.118 219.76 519.513 202.982 519.513C186.205 519.513 172.605 533.118 172.605 549.901C172.605 566.684 186.205 580.289 202.982 580.289Z" fill="#473F47"/>
<path d="M203.111 513.923V551.057L235.801 527.479C235.801 527.479 220.708 511.032 203.111 513.923Z" fill="white"/>
<path d="M414.92 653.208L374.652 664.515L388.588 691.434L417.168 683.403L414.92 653.208Z" fill="#388CEF"/>
<path d="M414.92 653.208L374.652 664.515L388.588 691.434L417.168 683.403L414.92 653.208Z" fill="url(#paint6_linear_2_236)"/>
<path d="M349.54 596.929C349.178 599.238 349.398 601.601 350.183 603.803C352.479 614.155 356.565 624.025 362.257 632.97C371.184 645.82 385.12 653.85 398.607 661.624C397.451 660.66 397.644 653.529 397.451 651.923L396.488 642.415C395.666 637.393 393.712 632.625 390.772 628.473C384.888 618.788 376.788 610.64 367.138 604.702C361.668 601.292 355.744 598.675 349.54 596.929V596.929Z" fill="#388CEF"/>
<path d="M349.54 596.929C349.178 599.238 349.398 601.601 350.183 603.803C352.479 614.155 356.565 624.025 362.257 632.97C371.184 645.82 385.12 653.85 398.607 661.624C397.451 660.66 397.644 653.529 397.451 651.923L396.488 642.415C395.666 637.393 393.712 632.625 390.772 628.473C384.888 618.788 376.788 610.64 367.138 604.702C361.668 601.292 355.744 598.675 349.54 596.929V596.929Z" fill="url(#paint7_linear_2_236)"/>
<path d="M405.029 616.716C406.401 608.219 406.639 599.578 405.736 591.018C404.716 582.308 400.281 574.358 393.405 568.917L383.322 604.381C381.023 611.108 379.788 618.153 379.661 625.261C380.194 632.26 382.183 639.07 385.501 645.254C388.819 651.439 393.393 656.861 398.928 661.174C402.139 656.099 401.433 646.976 402.139 641.001L405.029 616.716Z" fill="#388CEF"/>
<path d="M405.029 616.716C406.401 608.219 406.639 599.578 405.736 591.018C404.716 582.308 400.281 574.358 393.405 568.917L383.322 604.381C381.023 611.108 379.788 618.153 379.661 625.261C380.194 632.26 382.183 639.07 385.501 645.254C388.819 651.439 393.393 656.861 398.928 661.174C402.139 656.099 401.433 646.976 402.139 641.001L405.029 616.716Z" fill="url(#paint8_linear_2_236)"/>
<path d="M413.68 642.926L370.47 655.101C366.851 656.12 364.74 659.867 365.754 663.469C366.768 667.071 370.524 669.164 374.143 668.145L417.353 655.97C420.972 654.951 423.083 651.204 422.069 647.602C421.055 644 417.299 641.907 413.68 642.926Z" fill="#388CEF"/>
</g>
<defs>
<filter id="filter0_d_2_236" x="0.571472" y="0.970001" width="971.692" height="773.03" filterUnits="userSpaceOnUse" color-interpolation-filters="sRGB">
<feFlood flood-opacity="0" result="BackgroundImageFix"/>
<feColorMatrix in="SourceAlpha" type="matrix" values="0 0 0 0 0 0 0 0 0 0 0 0 0 0 0 0 0 0 127 0" result="hardAlpha"/>
<feOffset dy="4"/>
<feGaussianBlur stdDeviation="2"/>
<feComposite in2="hardAlpha" operator="out"/>
<feColorMatrix type="matrix" values="0 0 0 0 0 0 0 0 0 0 0 0 0 0 0 0 0 0 0.25 0"/>
<feBlend mode="normal" in2="BackgroundImageFix" result="effect1_dropShadow_2_236"/>
<feBlend mode="normal" in="SourceGraphic" in2="effect1_dropShadow_2_236" result="shape"/>
</filter>
<linearGradient id="paint0_linear_2_236" x1="632.83" y1="203.553" x2="774.314" y2="203.553" gradientUnits="userSpaceOnUse">
<stop offset="0.01"/>
<stop offset="0.08" stop-opacity="0.69"/>
<stop offset="0.21" stop-opacity="0.32"/>
<stop offset="1" stop-opacity="0"/>
</linearGradient>
<linearGradient id="paint1_linear_2_236" x1="151.908" y1="325.604" x2="1433.17" y2="1348.18" gradientUnits="userSpaceOnUse">
<stop offset="0.01"/>
<stop offset="0.08" stop-opacity="0.69"/>
<stop offset="0.21" stop-opacity="0.32"/>
<stop offset="1" stop-opacity="0"/>
</linearGradient>
<linearGradient id="paint2_linear_2_236" x1="262.838" y1="137.801" x2="942.418" y2="796.403" gradientUnits="userSpaceOnUse">
<stop offset="0.01"/>
<stop offset="0.08" stop-opacity="0.69"/>
<stop offset="0.21" stop-opacity="0.32"/>
<stop offset="1" stop-opacity="0"/>
</linearGradient>
<linearGradient id="paint3_linear_2_236" x1="442.519" y1="582.19" x2="688.053" y2="551.055" gradientUnits="userSpaceOnUse">
<stop offset="0.01"/>
<stop offset="0.08" stop-opacity="0.69"/>
<stop offset="0.21" stop-opacity="0.32"/>
<stop offset="1" stop-opacity="0"/>
</linearGradient>
<linearGradient id="paint4_linear_2_236" x1="723.631" y1="345.427" x2="799.985" y2="623.392" gradientUnits="userSpaceOnUse">
<stop offset="0.01"/>
<stop offset="0.08" stop-opacity="0.69"/>
<stop offset="0.21" stop-opacity="0.32"/>
<stop offset="1" stop-opacity="0"/>
</linearGradient>
<linearGradient id="paint5_linear_2_236" x1="757.211" y1="336.216" x2="833.521" y2="614.181" gradientUnits="userSpaceOnUse">
<stop offset="0.01"/>
<stop offset="0.08" stop-opacity="0.69"/>
<stop offset="0.21" stop-opacity="0.32"/>
<stop offset="1" stop-opacity="0"/>
</linearGradient>
<linearGradient id="paint6_linear_2_236" x1="365.128" y1="627.527" x2="453.726" y2="735.635" gradientUnits="userSpaceOnUse">
<stop offset="0.01"/>
<stop offset="0.08" stop-opacity="0.69"/>
<stop offset="0.21" stop-opacity="0.32"/>
<stop offset="1" stop-opacity="0"/>
</linearGradient>
<linearGradient id="paint7_linear_2_236" x1="411.755" y1="610.706" x2="301.394" y2="663.695" gradientUnits="userSpaceOnUse">
<stop offset="0.01"/>
<stop offset="0.13" stop-opacity="0.69"/>
<stop offset="0.25" stop-opacity="0.32"/>
<stop offset="1" stop-opacity="0"/>
</linearGradient>
<linearGradient id="paint8_linear_2_236" x1="315.958" y1="657.575" x2="484.67" y2="567.969" gradientUnits="userSpaceOnUse">
<stop offset="0.01"/>
<stop offset="0.13" stop-opacity="0.69"/>
<stop offset="0.25" stop-opacity="0.32"/>
<stop offset="1" stop-opacity="0"/>
</linearGradient>
</defs>
</svg>
